<svg width="44" height="44" viewBox="0 0 44 44" fill="none" xmlns="http://www.w3.org/2000/svg">
<path d="M31.3508 7.66553L36.3344 12.6468L31.3508 7.66553ZM34.5556 3.27725L21.0801 16.7527C20.3839 17.448 19.909 18.3338 19.7154 19.2986L18.4707 25.5292L24.7014 24.2822C25.6661 24.0892 26.5508 23.6163 27.2473 22.9198L40.7227 9.44437C41.1276 9.03944 41.4488 8.5587 41.668 8.02962C41.8872 7.50055 41.9999 6.93348 41.9999 6.36081C41.9999 5.78814 41.8872 5.22108 41.668 4.692C41.4488 4.16292 41.1276 3.68219 40.7227 3.27725C40.3178 2.87231 39.837 2.5511 39.3079 2.33195C38.7789 2.1128 38.2118 2 37.6391 2C37.0665 2 36.4994 2.1128 35.9703 2.33195C35.4412 2.5511 34.9605 2.87231 34.5556 3.27725V3.27725Z" stroke="#FFC93E" stroke-width="2.5" stroke-linecap="round" stroke-linejoin="round"/>
<path d="M37.2945 30.2352V37.2941C37.2945 38.5422 36.7987 39.7392 35.9161 40.6217C35.0336 41.5042 33.8366 42 32.5885 42H6.70593C5.45784 42 4.26087 41.5042 3.37833 40.6217C2.4958 39.7392 2 38.5422 2 37.2941V11.4115C2 10.1634 2.4958 8.96643 3.37833 8.0839C4.26087 7.20137 5.45784 6.70557 6.70593 6.70557H13.7648" stroke="#FFC93E" stroke-width="2.5" stroke-linecap="round" stroke-linejoin="round"/>
</svg>
