<?xml version="1.0" encoding="UTF-8"?>
<!DOCTYPE svg PUBLIC "-//W3C//DTD SVG 1.1//EN" "http://www.w3.org/Graphics/SVG/1.1/DTD/svg11.dtd">
<!-- Creator: CorelDRAW -->
<svg xmlns="http://www.w3.org/2000/svg" xml:space="preserve" width="39.6874mm" height="39.6874mm" version="1.1" style="shape-rendering:geometricPrecision; text-rendering:geometricPrecision; image-rendering:optimizeQuality; fill-rule:evenodd; clip-rule:evenodd"
viewBox="0 0 141.41 141.41"
 xmlns:xlink="http://www.w3.org/1999/xlink"
 xmlns:xodm="http://www.corel.com/coreldraw/odm/2003">
 <defs>
  <style type="text/css">
   <![CDATA[
    .fil1 {fill:black;fill-rule:nonzero}
    .fil2 {fill:#FFC93E;fill-rule:nonzero}
    .fil0 {fill:url(#id0);fill-rule:nonzero}
   ]]>
  </style>
  <linearGradient id="id0" gradientUnits="userSpaceOnUse" x1="75.92" y1="97.45" x2="75.92" y2="5.98">
   <stop offset="0" style="stop-opacity:1; stop-color:#939498"/>
   <stop offset="1" style="stop-opacity:1; stop-color:#F0E9CD"/>
  </linearGradient>
 </defs>
 <g id="Слой_x0020_1">
  <metadata id="CorelCorpID_0Corel-Layer"/>
  <g id="_2195915423568">
   <g filter="url(#filter0_b_404_698)">
    <circle class="fil0" cx="70.71" cy="70.71" r="70.71"/>
   </g>
   <path class="fil1" d="M53.66 108.81c0.7,0.33 1.23,0.79 1.6,1.4 0.37,0.61 0.55,1.3 0.55,2.09 -0,0.79 -0.21,1.63 -0.63,2.52 -0.41,0.88 -0.92,1.57 -1.53,2.08 -0.61,0.51 -1.26,0.81 -1.96,0.91 -0.7,0.1 -1.41,-0.01 -2.11,-0.34 -0.55,-0.26 -0.93,-0.55 -1.17,-0.88 -0.24,-0.33 -0.39,-0.65 -0.45,-0.95 -0.07,-0.31 -0.11,-0.55 -0.14,-0.74l-0.11 -0.05 -1.93 4.13 -1.29 -0.6 5.23 -11.18 1.24 0.58 -0.6 1.29 0.15 0.07c0.17,-0.11 0.39,-0.24 0.67,-0.39 0.28,-0.15 0.63,-0.24 1.04,-0.27 0.41,-0.03 0.88,0.09 1.42,0.34zm-0.72 1.08c-0.52,-0.24 -1.02,-0.31 -1.5,-0.21 -0.48,0.11 -0.93,0.36 -1.34,0.75 -0.41,0.4 -0.77,0.91 -1.06,1.55 -0.29,0.63 -0.46,1.22 -0.5,1.77 -0.04,0.56 0.06,1.05 0.29,1.48 0.23,0.43 0.61,0.77 1.13,1.02 0.55,0.26 1.07,0.33 1.56,0.22 0.49,-0.11 0.94,-0.36 1.34,-0.75 0.4,-0.39 0.74,-0.88 1.01,-1.47 0.28,-0.6 0.44,-1.18 0.49,-1.75 0.04,-0.57 -0.05,-1.08 -0.28,-1.54 -0.23,-0.45 -0.62,-0.81 -1.15,-1.06z"/>
   <path class="fil1" d="M44.38 102.72c0.44,0.39 0.77,0.82 0.98,1.31 0.21,0.49 0.28,0.98 0.21,1.48 -0.07,0.51 -0.31,0.98 -0.71,1.44 -0.35,0.4 -0.71,0.65 -1.09,0.76 -0.38,0.11 -0.76,0.12 -1.15,0.03 -0.39,-0.09 -0.77,-0.24 -1.15,-0.45 -0.38,-0.21 -0.75,-0.44 -1.11,-0.68 -0.47,-0.32 -0.85,-0.58 -1.13,-0.78 -0.29,-0.2 -0.53,-0.33 -0.71,-0.36 -0.18,-0.04 -0.35,0.03 -0.5,0.2l-0.03 0.04c-0.39,0.45 -0.58,0.9 -0.55,1.36 0.02,0.46 0.28,0.91 0.77,1.34 0.51,0.45 1.01,0.69 1.49,0.72 0.49,0.03 0.9,-0.03 1.24,-0.17l0.69 1.25c-0.55,0.26 -1.08,0.38 -1.59,0.35 -0.51,-0.03 -0.99,-0.16 -1.43,-0.38 -0.45,-0.22 -0.84,-0.49 -1.19,-0.8 -0.22,-0.2 -0.45,-0.45 -0.7,-0.76 -0.25,-0.31 -0.43,-0.67 -0.56,-1.07 -0.13,-0.4 -0.14,-0.85 -0.03,-1.34 0.11,-0.49 0.41,-1.01 0.89,-1.56l4.04 -4.57 1.07 0.94 -0.83 0.94 0.05 0.05c0.21,-0.09 0.47,-0.14 0.79,-0.16 0.32,-0.02 0.67,0.03 1.06,0.16 0.39,0.13 0.78,0.37 1.18,0.73zm-1.01 0.81c-0.42,-0.37 -0.85,-0.6 -1.29,-0.69 -0.44,-0.09 -0.85,-0.07 -1.23,0.06 -0.38,0.13 -0.7,0.34 -0.96,0.63l-0.86 0.97c0.09,-0.01 0.24,0.02 0.43,0.12 0.19,0.09 0.4,0.21 0.62,0.35 0.22,0.14 0.44,0.28 0.65,0.43 0.2,0.14 0.37,0.25 0.49,0.34 0.31,0.21 0.62,0.38 0.93,0.51 0.31,0.13 0.6,0.18 0.89,0.15 0.28,-0.03 0.54,-0.18 0.78,-0.45 0.33,-0.37 0.44,-0.77 0.33,-1.2 -0.11,-0.43 -0.38,-0.83 -0.8,-1.21z"/>
   <polygon class="fil1" points="27.44,102.51 37.47,95.32 38.3,96.48 28.27,103.66 "/>
   <path class="fil1" d="M34.63 90.51l-8.34 4.01 -0.62 -1.28 8.34 -4.01 0.62 1.28zm-10.05 4.03c0.12,0.25 0.14,0.51 0.06,0.77 -0.08,0.26 -0.25,0.45 -0.49,0.56 -0.24,0.12 -0.49,0.12 -0.74,0.03 -0.26,-0.1 -0.45,-0.27 -0.57,-0.52 -0.12,-0.25 -0.14,-0.5 -0.05,-0.76 0.08,-0.26 0.24,-0.45 0.48,-0.57 0.24,-0.12 0.49,-0.12 0.74,-0.02 0.26,0.1 0.44,0.27 0.56,0.52z"/>
   <path class="fil1" d="M31.37 80.56c0.18,0.81 0.15,1.57 -0.1,2.28 -0.25,0.7 -0.68,1.3 -1.3,1.8 -0.62,0.5 -1.4,0.85 -2.33,1.07 -0.94,0.21 -1.8,0.23 -2.58,0.05 -0.78,-0.19 -1.43,-0.54 -1.96,-1.06 -0.53,-0.53 -0.88,-1.2 -1.07,-2.01 -0.18,-0.81 -0.15,-1.57 0.1,-2.27 0.25,-0.7 0.68,-1.3 1.31,-1.8 0.62,-0.5 1.4,-0.86 2.34,-1.08 0.93,-0.21 1.79,-0.22 2.56,-0.04 0.77,0.18 1.43,0.54 1.95,1.07 0.53,0.52 0.88,1.19 1.07,2.01zm-1.25 0.28c-0.14,-0.62 -0.41,-1.09 -0.82,-1.42 -0.41,-0.33 -0.89,-0.53 -1.45,-0.6 -0.56,-0.07 -1.14,-0.04 -1.75,0.09 -0.6,0.14 -1.14,0.36 -1.62,0.67 -0.48,0.31 -0.83,0.7 -1.06,1.17 -0.23,0.47 -0.28,1.02 -0.14,1.64 0.14,0.62 0.42,1.09 0.83,1.42 0.41,0.33 0.9,0.53 1.46,0.6 0.56,0.07 1.15,0.04 1.75,-0.09 0.6,-0.14 1.14,-0.36 1.62,-0.67 0.47,-0.31 0.82,-0.7 1.05,-1.17 0.23,-0.47 0.27,-1.02 0.13,-1.64z"/>
   <polygon class="fil2" points="26.16,61.9 23.6,61.21 24.48,63.72 23.36,64.05 22.7,61.47 20.97,63.5 20.11,62.7 22,60.84 19.4,60.34 19.66,59.21 22.22,59.9 21.34,57.4 22.46,57.06 23.12,59.64 24.85,57.62 25.71,58.41 23.82,60.27 26.42,60.78 "/>
   <path class="fil1" d="M39.87 46.3l-2.44 2.92 -9.47 -7.91 2.55 -3.05c0.77,-0.92 1.61,-1.55 2.54,-1.88 0.92,-0.34 1.88,-0.39 2.88,-0.15 0.99,0.24 1.98,0.77 2.96,1.59 0.99,0.82 1.69,1.71 2.11,2.65 0.42,0.94 0.53,1.91 0.36,2.9 -0.18,0.99 -0.67,1.96 -1.48,2.93zm-2.5 0.93l1.42 -1.7c0.65,-0.78 1.04,-1.56 1.17,-2.33 0.13,-0.77 0.02,-1.51 -0.33,-2.23 -0.35,-0.72 -0.91,-1.4 -1.68,-2.04 -0.77,-0.64 -1.53,-1.06 -2.29,-1.27 -0.76,-0.21 -1.5,-0.2 -2.21,0.05 -0.71,0.25 -1.38,0.74 -2,1.48l-1.53 1.83 7.44 6.21z"/>
   <path class="fil1" d="M46.35 40.14l-5.47 -7.47 1.15 -0.84 5.47 7.47 -1.15 0.84zm-5.8 -9.14c-0.22,0.16 -0.47,0.23 -0.75,0.2 -0.27,-0.04 -0.48,-0.16 -0.64,-0.37 -0.16,-0.21 -0.21,-0.46 -0.16,-0.72 0.05,-0.27 0.19,-0.49 0.41,-0.65 0.22,-0.16 0.47,-0.23 0.74,-0.19 0.27,0.03 0.49,0.16 0.65,0.37 0.16,0.21 0.21,0.46 0.16,0.73 -0.05,0.27 -0.18,0.48 -0.41,0.65z"/>
   <path class="fil1" d="M56.89 38.31c-0.63,0.27 -1.21,0.42 -1.73,0.46 -0.52,0.04 -0.99,-0.01 -1.41,-0.14 -0.41,-0.13 -0.77,-0.3 -1.07,-0.52l0.73 -1.18c0.18,0.1 0.41,0.22 0.68,0.34 0.27,0.12 0.59,0.19 0.97,0.21 0.38,0.01 0.83,-0.09 1.34,-0.31 0.69,-0.3 1.18,-0.71 1.48,-1.23 0.3,-0.52 0.3,-1.14 -0,-1.85l-0.74 -1.73 -0.11 0.05c-0.03,0.2 -0.08,0.45 -0.16,0.75 -0.08,0.3 -0.24,0.61 -0.49,0.93 -0.25,0.31 -0.65,0.59 -1.2,0.83 -0.69,0.3 -1.37,0.4 -2.06,0.31 -0.68,-0.09 -1.32,-0.38 -1.9,-0.86 -0.58,-0.48 -1.06,-1.17 -1.44,-2.05 -0.38,-0.87 -0.55,-1.69 -0.52,-2.47 0.03,-0.78 0.24,-1.47 0.63,-2.06 0.39,-0.59 0.94,-1.04 1.66,-1.35 0.55,-0.24 1.03,-0.34 1.44,-0.29 0.41,0.04 0.75,0.14 1.02,0.3 0.28,0.15 0.49,0.28 0.65,0.39l0.13 -0.06 -0.58 -1.35 1.26 -0.54 3.77 8.74c0.31,0.73 0.41,1.4 0.27,2 -0.13,0.6 -0.43,1.13 -0.89,1.59 -0.46,0.46 -1.03,0.83 -1.71,1.12zm-2.06 -4.65c0.52,-0.23 0.92,-0.54 1.17,-0.93 0.26,-0.4 0.38,-0.86 0.38,-1.39 -0.01,-0.53 -0.14,-1.11 -0.41,-1.74 -0.26,-0.61 -0.59,-1.11 -0.98,-1.5 -0.39,-0.39 -0.82,-0.64 -1.29,-0.75 -0.48,-0.11 -0.98,-0.05 -1.51,0.18 -0.55,0.24 -0.95,0.58 -1.2,1.02 -0.24,0.44 -0.36,0.93 -0.34,1.48 0.02,0.55 0.16,1.11 0.41,1.69 0.25,0.59 0.57,1.07 0.95,1.45 0.38,0.37 0.81,0.6 1.29,0.7 0.48,0.1 0.99,0.03 1.54,-0.21z"/>
   <path class="fil1" d="M62.83 32.71l-1.68 -9.1 1.4 -0.26 1.68 9.1 -1.4 0.26zm-1.24 -10.75c-0.27,0.05 -0.52,0 -0.76,-0.15 -0.23,-0.15 -0.37,-0.36 -0.41,-0.62 -0.05,-0.26 0.01,-0.5 0.17,-0.72 0.16,-0.22 0.38,-0.36 0.65,-0.41 0.27,-0.05 0.52,-0 0.75,0.15 0.23,0.15 0.37,0.35 0.42,0.62 0.05,0.26 -0.01,0.5 -0.17,0.72 -0.16,0.22 -0.38,0.36 -0.65,0.41z"/>
   <path class="fil1" d="M73.82 22.69l-0.01 1.21 -4.8 -0.04 0.01 -1.21 4.8 0.04zm-3.38 -2.25l1.42 0.01 -0.08 8.82c-0,0.4 0.05,0.7 0.17,0.91 0.12,0.2 0.27,0.33 0.45,0.4 0.19,0.07 0.39,0.1 0.6,0.1 0.16,0 0.29,-0.01 0.39,-0.02 0.1,-0.02 0.18,-0.03 0.24,-0.05l0.28 1.28c-0.1,0.04 -0.23,0.07 -0.4,0.1 -0.17,0.04 -0.39,0.06 -0.66,0.05 -0.4,-0 -0.79,-0.09 -1.18,-0.27 -0.38,-0.18 -0.7,-0.44 -0.95,-0.8 -0.25,-0.36 -0.37,-0.8 -0.36,-1.34l0.08 -9.21z"/>
   <path class="fil1" d="M80.53 33.33c-0.57,-0.15 -1.06,-0.39 -1.46,-0.72 -0.41,-0.34 -0.69,-0.74 -0.86,-1.22 -0.17,-0.48 -0.17,-1.02 -0.02,-1.6 0.13,-0.51 0.34,-0.9 0.62,-1.17 0.29,-0.27 0.62,-0.45 1.01,-0.55 0.39,-0.1 0.79,-0.14 1.23,-0.12 0.44,0.01 0.87,0.04 1.3,0.1 0.56,0.07 1.02,0.13 1.37,0.18 0.35,0.05 0.62,0.05 0.8,-0 0.18,-0.05 0.3,-0.18 0.36,-0.41l0.01 -0.05c0.15,-0.58 0.11,-1.06 -0.13,-1.46 -0.23,-0.4 -0.66,-0.68 -1.3,-0.84 -0.66,-0.17 -1.21,-0.16 -1.66,0.03 -0.45,0.19 -0.79,0.43 -1.02,0.72l-1.19 -0.8c0.37,-0.48 0.79,-0.83 1.26,-1.03 0.47,-0.21 0.95,-0.31 1.45,-0.31 0.5,-0 0.97,0.05 1.43,0.17 0.29,0.07 0.61,0.19 0.97,0.36 0.36,0.16 0.69,0.39 0.99,0.69 0.3,0.3 0.51,0.69 0.64,1.18 0.12,0.48 0.1,1.08 -0.09,1.79l-1.52 5.91 -1.38 -0.35 0.31 -1.21 -0.07 -0.02c-0.14,0.17 -0.35,0.34 -0.63,0.5 -0.28,0.17 -0.61,0.28 -1.02,0.34 -0.4,0.06 -0.86,0.03 -1.39,-0.11zm0.53 -1.18c0.54,0.14 1.03,0.15 1.46,0.03 0.43,-0.12 0.79,-0.32 1.07,-0.61 0.28,-0.29 0.47,-0.62 0.57,-0.99l0.32 -1.26c-0.08,0.06 -0.22,0.09 -0.43,0.09 -0.21,0 -0.45,-0 -0.71,-0.03 -0.26,-0.03 -0.52,-0.05 -0.77,-0.09 -0.24,-0.03 -0.44,-0.06 -0.6,-0.08 -0.37,-0.05 -0.72,-0.06 -1.06,-0.03 -0.33,0.02 -0.62,0.11 -0.87,0.27 -0.24,0.15 -0.4,0.41 -0.49,0.76 -0.12,0.48 -0.04,0.89 0.25,1.22 0.3,0.33 0.72,0.57 1.27,0.71z"/>
   <polygon class="fil1" points="95.71,25.81 90.04,36.78 88.78,36.12 94.44,25.16 "/>
   <polygon class="fil2" points="106.1,43.09 108.19,41.46 105.66,40.65 106.07,39.56 108.53,40.59 107.96,37.99 109.11,37.78 109.45,40.41 111.42,38.64 112.17,39.53 110.07,41.15 112.6,41.96 112.19,43.06 109.73,42.03 110.3,44.63 109.16,44.84 108.81,42.2 106.84,43.98 "/>
   <path class="fil1" d="M109.78 62.33c-0.14,-0.57 -0.16,-1.11 -0.07,-1.63 0.1,-0.52 0.32,-0.97 0.66,-1.34 0.35,-0.38 0.81,-0.64 1.39,-0.78 0.51,-0.13 0.96,-0.13 1.33,-0.01 0.37,0.12 0.69,0.33 0.96,0.62 0.27,0.29 0.5,0.63 0.69,1.02 0.2,0.39 0.37,0.79 0.53,1.19 0.21,0.53 0.37,0.96 0.49,1.29 0.12,0.33 0.25,0.57 0.38,0.7 0.13,0.14 0.31,0.18 0.53,0.12l0.05 -0.01c0.58,-0.14 0.99,-0.41 1.23,-0.81 0.24,-0.39 0.28,-0.91 0.12,-1.54 -0.16,-0.66 -0.44,-1.14 -0.82,-1.44 -0.38,-0.3 -0.76,-0.49 -1.12,-0.56l0.14 -1.43c0.6,0.1 1.11,0.3 1.51,0.62 0.41,0.32 0.73,0.69 0.96,1.13 0.24,0.44 0.42,0.88 0.53,1.33 0.07,0.29 0.12,0.63 0.14,1.02 0.03,0.39 -0.02,0.79 -0.14,1.2 -0.12,0.41 -0.37,0.78 -0.73,1.12 -0.37,0.34 -0.91,0.6 -1.62,0.78l-5.92 1.48 -0.34 -1.38 1.22 -0.3 -0.02 -0.07c-0.22,-0.04 -0.47,-0.15 -0.74,-0.31 -0.28,-0.16 -0.54,-0.41 -0.79,-0.73 -0.25,-0.32 -0.43,-0.75 -0.57,-1.27zm1.29 -0.1c0.14,0.55 0.36,0.98 0.67,1.3 0.31,0.32 0.66,0.54 1.04,0.65 0.39,0.11 0.77,0.12 1.14,0.02l1.26 -0.32c-0.08,-0.04 -0.18,-0.15 -0.29,-0.34 -0.1,-0.18 -0.21,-0.4 -0.31,-0.64 -0.1,-0.24 -0.2,-0.48 -0.29,-0.72 -0.09,-0.23 -0.16,-0.42 -0.22,-0.56 -0.14,-0.35 -0.3,-0.66 -0.48,-0.95 -0.18,-0.28 -0.39,-0.49 -0.65,-0.63 -0.25,-0.14 -0.55,-0.16 -0.9,-0.07 -0.48,0.12 -0.8,0.39 -0.95,0.8 -0.15,0.42 -0.16,0.9 -0.02,1.45z"/>
   <path class="fil1" d="M107.56 74.28c0.02,-0.69 0.13,-1.27 0.32,-1.76 0.19,-0.49 0.43,-0.89 0.73,-1.21 0.29,-0.32 0.6,-0.57 0.93,-0.75l0.76 1.16c-0.17,0.12 -0.37,0.28 -0.59,0.47 -0.23,0.19 -0.43,0.45 -0.6,0.79 -0.18,0.34 -0.27,0.79 -0.29,1.35 -0.02,0.75 0.14,1.37 0.48,1.87 0.35,0.5 0.9,0.76 1.67,0.78l1.88 0.06 0 -0.12c-0.17,-0.11 -0.37,-0.27 -0.61,-0.47 -0.24,-0.2 -0.45,-0.48 -0.63,-0.84 -0.18,-0.36 -0.26,-0.84 -0.24,-1.44 0.02,-0.75 0.22,-1.41 0.6,-1.99 0.37,-0.58 0.9,-1.03 1.59,-1.35 0.69,-0.32 1.51,-0.46 2.47,-0.43 0.95,0.03 1.77,0.22 2.46,0.58 0.7,0.36 1.23,0.84 1.59,1.44 0.37,0.61 0.54,1.3 0.52,2.08 -0.02,0.6 -0.14,1.08 -0.35,1.42 -0.21,0.35 -0.44,0.62 -0.7,0.8 -0.26,0.18 -0.46,0.33 -0.63,0.43l-0 0.14 1.47 0.05 -0.05 1.37 -9.52 -0.31c-0.79,-0.03 -1.44,-0.23 -1.92,-0.6 -0.49,-0.37 -0.84,-0.87 -1.06,-1.48 -0.22,-0.61 -0.31,-1.28 -0.29,-2.02zm5.09 0.12c-0.02,0.57 0.1,1.06 0.34,1.46 0.25,0.4 0.61,0.71 1.1,0.93 0.48,0.22 1.07,0.34 1.75,0.36 0.67,0.02 1.26,-0.06 1.77,-0.24 0.52,-0.18 0.93,-0.47 1.23,-0.85 0.3,-0.38 0.46,-0.87 0.48,-1.44 0.02,-0.6 -0.12,-1.11 -0.41,-1.52 -0.29,-0.41 -0.69,-0.72 -1.2,-0.94 -0.51,-0.21 -1.07,-0.33 -1.7,-0.35 -0.64,-0.02 -1.21,0.06 -1.71,0.25 -0.5,0.19 -0.89,0.48 -1.19,0.87 -0.29,0.39 -0.45,0.89 -0.46,1.48z"/>
   <path class="fil1" d="M108.9 85.47c0.27,-0.85 0.69,-1.52 1.27,-2.02 0.58,-0.49 1.25,-0.79 2.04,-0.91 0.79,-0.11 1.63,-0.02 2.53,0.27 0.9,0.29 1.65,0.71 2.23,1.26 0.59,0.55 0.98,1.19 1.17,1.91 0.2,0.72 0.17,1.48 -0.08,2.28 -0.15,0.46 -0.37,0.89 -0.66,1.29 -0.3,0.4 -0.67,0.73 -1.14,0.98 -0.46,0.26 -1,0.41 -1.64,0.45 -0.63,0.04 -1.36,-0.07 -2.18,-0.34l-0.57 -0.18 2.17 -6.8 1.17 0.37 -1.73 5.42c0.5,0.16 0.97,0.2 1.43,0.13 0.45,-0.07 0.85,-0.25 1.19,-0.54 0.34,-0.29 0.59,-0.68 0.75,-1.17 0.17,-0.54 0.19,-1.05 0.05,-1.53 -0.14,-0.47 -0.39,-0.89 -0.74,-1.23 -0.36,-0.35 -0.78,-0.6 -1.27,-0.75l-0.78 -0.25c-0.67,-0.21 -1.27,-0.28 -1.8,-0.2 -0.53,0.09 -0.99,0.3 -1.36,0.63 -0.37,0.34 -0.64,0.78 -0.82,1.33 -0.11,0.36 -0.17,0.69 -0.16,1.01 0.01,0.32 0.08,0.62 0.22,0.9 0.14,0.28 0.34,0.52 0.61,0.73l-0.79 1.19c-0.4,-0.28 -0.72,-0.64 -0.95,-1.07 -0.23,-0.43 -0.36,-0.92 -0.39,-1.45 -0.03,-0.54 0.05,-1.1 0.24,-1.7z"/>
   <path class="fil1" d="M110.02 96.54l-4.64 -3.08 0.79 -1.18 7.71 5.13 -0.76 1.14 -1.2 -0.8 -0.07 0.1c0.27,0.44 0.4,0.92 0.4,1.45 -0,0.53 -0.2,1.08 -0.59,1.66 -0.35,0.52 -0.76,0.91 -1.23,1.16 -0.47,0.25 -0.99,0.34 -1.57,0.27 -0.57,-0.07 -1.19,-0.32 -1.84,-0.76l-4.9 -3.26 0.79 -1.18 4.82 3.2c0.61,0.4 1.18,0.56 1.73,0.47 0.55,-0.09 1.01,-0.41 1.37,-0.95 0.25,-0.38 0.39,-0.77 0.43,-1.18 0.03,-0.4 -0.05,-0.79 -0.25,-1.17 -0.2,-0.38 -0.53,-0.72 -0.97,-1.02z"/>
   <path class="fil1" d="M96.39 103.49c0.66,-0.56 1.36,-0.89 2.1,-0.99 0.74,-0.1 1.48,0.02 2.2,0.35 0.72,0.33 1.39,0.84 1.99,1.54 0.61,0.72 1.02,1.46 1.22,2.23 0.2,0.78 0.2,1.52 -0.01,2.24 -0.21,0.72 -0.63,1.35 -1.27,1.89 -0.49,0.42 -1.02,0.71 -1.57,0.87 -0.55,0.16 -1.1,0.18 -1.63,0.06 -0.54,-0.11 -1.02,-0.36 -1.46,-0.75l1.08 -0.92c0.36,0.25 0.78,0.38 1.28,0.38 0.5,0.01 0.98,-0.19 1.46,-0.59 0.42,-0.36 0.7,-0.79 0.83,-1.28 0.13,-0.49 0.11,-1 -0.05,-1.55 -0.16,-0.54 -0.47,-1.08 -0.93,-1.61 -0.46,-0.54 -0.95,-0.94 -1.47,-1.2 -0.52,-0.25 -1.03,-0.36 -1.54,-0.31 -0.51,0.05 -0.98,0.26 -1.4,0.62 -0.28,0.24 -0.5,0.51 -0.64,0.8 -0.15,0.29 -0.22,0.6 -0.22,0.92 -0,0.32 0.07,0.64 0.22,0.95l-1.08 0.92c-0.29,-0.47 -0.46,-0.97 -0.51,-1.51 -0.04,-0.53 0.05,-1.07 0.28,-1.6 0.23,-0.53 0.6,-1.01 1.12,-1.45z"/>
   <path class="fil1" d="M88.11 105.14c0.22,-0.1 0.42,-0.17 0.61,-0.21 0.19,-0.05 0.32,-0.07 0.4,-0.06l0.19 1.29c-0.35,0.06 -0.64,0.16 -0.87,0.29 -0.23,0.13 -0.4,0.34 -0.49,0.62 -0.1,0.28 -0.14,0.66 -0.1,1.16l0.06 0.77 6.98 7.03 -1.4 0.64 -5.39 -5.64 -0.09 0.04 0.75 7.77 -1.4 0.64 -0.84 -11.28c-0.04,-0.51 -0,-0.96 0.1,-1.35 0.11,-0.4 0.28,-0.74 0.53,-1.02 0.25,-0.28 0.57,-0.51 0.96,-0.69z"/>
   <path class="fil2" d="M63.64 80.13c-0.21,0 -0.41,-0.08 -0.56,-0.23 -0.15,-0.15 -0.23,-0.35 -0.23,-0.56l0 -17.28c0,-0.14 0.04,-0.27 0.1,-0.39 0.07,-0.12 0.16,-0.22 0.28,-0.29 0.12,-0.07 0.25,-0.11 0.39,-0.11 0.14,-0 0.27,0.03 0.39,0.1l15.71 8.64c0.12,0.07 0.23,0.17 0.3,0.29 0.07,0.12 0.11,0.26 0.11,0.4 0,0.14 -0.04,0.28 -0.11,0.4 -0.07,0.12 -0.17,0.22 -0.3,0.29l-15.71 8.64c-0.12,0.06 -0.25,0.1 -0.38,0.1z"/>
  </g>
 </g>
</svg>
