<svg width="20" height="14" viewBox="0 0 20 14" fill="none" xmlns="http://www.w3.org/2000/svg">
<path fill-rule="evenodd" clip-rule="evenodd" d="M19.8 7.00039C19.8 7.18604 19.7262 7.36408 19.595 7.49536C19.4637 7.62664 19.2856 7.70039 19.1 7.70039L2.58979 7.70039L6.99559 12.1048C7.12704 12.2362 7.20088 12.4145 7.20088 12.6004C7.20088 12.7863 7.12704 12.9645 6.99559 13.096C6.86415 13.2274 6.68588 13.3013 6.49999 13.3013C6.31411 13.3013 6.13584 13.2274 6.00439 13.096L0.404394 7.49599C0.339204 7.43096 0.287485 7.35372 0.252197 7.26867C0.216907 7.18363 0.198743 7.09246 0.198743 7.00039C0.198743 6.90831 0.216907 6.81714 0.252197 6.7321C0.287485 6.64706 0.339204 6.56981 0.404394 6.50479L6.00439 0.904787C6.13583 0.773345 6.31411 0.699503 6.49999 0.699503C6.68588 0.699503 6.86415 0.773345 6.99559 0.904787C7.12704 1.03623 7.20088 1.2145 7.20088 1.40039C7.20088 1.58627 7.12704 1.76455 6.99559 1.89599L2.58979 6.30039L19.1 6.30039C19.2856 6.30039 19.4637 6.37414 19.595 6.50541C19.7262 6.63669 19.8 6.81473 19.8 7.00039Z" fill="#0A142F"/>
</svg>
