<svg width="28" height="28" viewBox="0 0 28 28" fill="none" xmlns="http://www.w3.org/2000/svg">
<path fill-rule="evenodd" clip-rule="evenodd" d="M11.4656 2.77555C13.8845 2.22903 16.4153 2.47907 18.6805 3.48838C19.185 3.71316 19.7762 3.48643 20.0009 2.98195C20.2257 2.47748 19.999 1.88631 19.4945 1.66153C16.8354 0.47668 13.8645 0.183153 11.0249 0.824722C8.18526 1.46629 5.62913 3.00858 3.73768 5.22157C1.84623 7.43457 0.720809 10.1997 0.529264 13.1045C0.337718 16.0094 1.09031 18.8984 2.6748 21.3406C4.25928 23.7828 6.59077 25.6473 9.32154 26.6562C12.0523 27.6651 15.036 27.7642 17.8277 26.9388C20.6194 26.1134 23.0695 24.4076 24.8126 22.076C26.5557 19.7443 27.4983 16.9117 27.5 14.0005V14V12.85C27.5 12.2977 27.0523 11.85 26.5 11.85C25.9477 11.85 25.5 12.2977 25.5 12.85V13.9994C25.4986 16.4793 24.6956 18.8923 23.2107 20.8785C21.7259 22.8647 19.6388 24.3177 17.2607 25.0209C14.8825 25.724 12.3408 25.6396 10.0146 24.7802C7.68843 23.9207 5.70235 22.3324 4.35261 20.252C3.00286 18.1716 2.36176 15.7107 2.52493 13.2361C2.6881 10.7616 3.64679 8.40616 5.25802 6.52102C6.86926 4.63587 9.04671 3.32207 11.4656 2.77555ZM27.2075 4.70675C27.5978 4.31603 27.5975 3.68287 27.2068 3.29254C26.816 2.90221 26.1829 2.90253 25.7925 3.29325L13.9996 15.0979L10.9571 12.0554C10.5666 11.6649 9.93342 11.6649 9.54289 12.0554C9.15237 12.4459 9.15237 13.0791 9.54289 13.4696L13.2929 17.2196C13.4805 17.4072 13.7349 17.5126 14.0003 17.5125C14.2656 17.5124 14.52 17.4069 14.7075 17.2193L27.2075 4.70675Z" fill="#792D2D"/>
</svg>
