<svg width="50" height="50" viewBox="0 0 50 50" fill="none" xmlns="http://www.w3.org/2000/svg">
<path d="M10.6667 25.1259V39.3333H24.8741L21.9111 36.3703H13.6296V28.0888L10.6667 25.1259Z" fill="#FFC93E"/>
<path d="M48.9926 47.1703L44.7407 42.8592V46.7407H3.25924V40.5925H6.2222V38.2222H3.25924V28.3703H6.2222V26H3.25924V16.5185H6.2222V14.1481H3.25924V5.86662L26.8741 29.3481V25.1703L2.82961 1.2444C2.62239 1.03547 2.35765 0.892976 2.06913 0.835095C1.78062 0.777214 1.4814 0.806564 1.20964 0.919404C0.937866 1.03224 0.705858 1.22346 0.54319 1.46867C0.380521 1.71389 0.294563 2.00199 0.296274 2.29625V48.2222C0.296274 48.6151 0.452359 48.9919 0.73019 49.2697C1.00802 49.5476 1.38484 49.7037 1.77776 49.7037H47.9407C48.235 49.7054 48.5231 49.6194 48.7683 49.4567C49.0135 49.2941 49.2047 49.0621 49.3176 48.7903C49.4304 48.5185 49.4597 48.2193 49.4019 47.9308C49.344 47.6423 49.2015 47.3775 48.9926 47.1703Z" fill="#FFC93E"/>
<path d="M32.8889 43.7777H38.8148C39.6006 43.7777 40.3543 43.4656 40.9099 42.9099C41.4656 42.3542 41.7778 41.6006 41.7778 40.8148V12.2222L38.3703 5.95552C38.1068 5.49896 37.7263 5.12097 37.2679 4.86055C36.8096 4.60013 36.29 4.4667 35.7629 4.47404C35.2239 4.47832 34.6962 4.62957 34.2368 4.91151C33.7773 5.19345 33.4035 5.59539 33.1555 6.07404L29.9259 12.2518V40.8148C29.9259 41.6006 30.2381 42.3542 30.7937 42.9099C31.3494 43.4656 32.103 43.7777 32.8889 43.7777ZM32.8889 12.9629L35.7629 7.37775L38.8148 12.9777V34.8889H32.8889V12.9629ZM32.8889 37.3037H38.8148V40.9185H32.8889V37.3037Z" fill="#FFC93E"/>
</svg>
