<svg width="56" height="46" viewBox="0 0 56 46" fill="none" xmlns="http://www.w3.org/2000/svg">
<path fill-rule="evenodd" clip-rule="evenodd" d="M6.66665 2.91675C5.58368 2.91675 4.54507 3.34696 3.77929 4.11273C3.01352 4.8785 2.58331 5.91711 2.58331 7.00008V31.0001C2.58331 32.083 3.01352 33.1217 3.77929 33.8874C4.54507 34.6532 5.58368 35.0834 6.66665 35.0834H49.3333C50.4163 35.0834 51.4549 34.6532 52.2207 33.8874C52.9864 33.1217 53.4166 32.083 53.4166 31.0001V7.00008C53.4166 5.91711 52.9864 4.8785 52.2207 4.11273C51.4549 3.34695 50.4163 2.91675 49.3333 2.91675H6.66665ZM2.01153 2.34496C3.24614 1.11035 4.92064 0.416748 6.66665 0.416748H49.3333C51.0793 0.416748 52.7538 1.11035 53.9884 2.34496C55.223 3.57958 55.9166 5.25407 55.9166 7.00008V31.0001C55.9166 32.7461 55.223 34.4206 53.9884 35.6552C52.7538 36.8898 51.0793 37.5834 49.3333 37.5834H6.66665C4.92064 37.5834 3.24614 36.8898 2.01153 35.6552C0.776912 34.4206 0.083313 32.7461 0.083313 31.0001V7.00008C0.083313 5.25407 0.776912 3.57958 2.01153 2.34496ZM16.0833 44.3334C16.0833 43.6431 16.643 43.0834 17.3333 43.0834H38.6666C39.357 43.0834 39.9166 43.6431 39.9166 44.3334C39.9166 45.0238 39.357 45.5834 38.6666 45.5834H17.3333C16.643 45.5834 16.0833 45.0238 16.0833 44.3334Z" fill="#FFC93E"/>
</svg>
