<svg width="46" height="57" viewBox="0 0 46 57" fill="none" xmlns="http://www.w3.org/2000/svg">
<path d="M14.0833 31.3333C14.0833 30.643 14.643 30.0833 15.3333 30.0833H31.3333C32.0237 30.0833 32.5833 30.643 32.5833 31.3333C32.5833 32.0237 32.0237 32.5833 31.3333 32.5833H15.3333C14.643 32.5833 14.0833 32.0237 14.0833 31.3333Z" fill="#62522B"/>
<path d="M14.0833 42C14.0833 41.3096 14.643 40.75 15.3333 40.75H23.3333C24.0237 40.75 24.5833 41.3096 24.5833 42C24.5833 42.6904 24.0237 43.25 23.3333 43.25H15.3333C14.643 43.25 14.0833 42.6904 14.0833 42Z" fill="#62522B"/>
<path fill-rule="evenodd" clip-rule="evenodd" d="M2.67821 2.67821C3.91283 1.4436 5.58733 0.75 7.33333 0.75H27.4933C29.2135 0.750214 30.8653 1.42367 32.0952 2.62625L43.9351 14.2048C43.9352 14.2048 43.935 14.2047 43.9351 14.2048C44.5622 14.8178 45.0607 15.5501 45.4009 16.3583C45.7412 17.1666 45.9166 18.0348 45.9167 18.9118V50C45.9167 51.746 45.2231 53.4205 43.9885 54.6551C42.7538 55.8897 41.0793 56.5833 39.3333 56.5833H7.33333C5.58733 56.5833 3.91283 55.8897 2.67821 54.6551C1.4436 53.4205 0.75 51.746 0.75 50V7.33333C0.75 5.58732 1.4436 3.91283 2.67821 2.67821ZM7.33333 3.25C6.25037 3.25 5.21175 3.68021 4.44598 4.44598C3.68021 5.21175 3.25 6.25037 3.25 7.33333V50C3.25 51.083 3.68021 52.1216 4.44598 52.8873C5.21175 53.6531 6.25037 54.0833 7.33333 54.0833H39.3333C40.4163 54.0833 41.4549 53.6531 42.2207 52.8873C42.9865 52.1216 43.4167 51.083 43.4167 50V19.25H34C32.254 19.25 30.5795 18.5564 29.3448 17.3218C28.1102 16.0872 27.4166 14.4127 27.4166 12.6667V3.25H7.33333ZM29.9166 4.04728V12.6667C29.9166 13.7496 30.3468 14.7882 31.1126 15.554C31.8784 16.3198 32.917 16.75 34 16.75H42.7969C42.6251 16.4748 42.4207 16.2204 42.1876 15.9926L30.3474 4.41375C30.3474 4.41373 30.3475 4.41377 30.3474 4.41375C30.2117 4.28106 30.0677 4.15869 29.9166 4.04728Z" fill="#62522B"/>
</svg>
