<svg width="56" height="56" viewBox="0 0 56 56" fill="none" xmlns="http://www.w3.org/2000/svg">
<path fill-rule="evenodd" clip-rule="evenodd" d="M46.1488 0.620999C47.0059 0.265978 47.9245 0.083252 48.8522 0.083252C49.78 0.083252 50.6986 0.265978 51.5557 0.620999C52.4128 0.976019 53.1916 1.49638 53.8476 2.15237C54.5035 2.80836 55.0239 3.58714 55.3789 4.44423C55.7339 5.30133 55.9167 6.21996 55.9167 7.14767C55.9167 8.07538 55.7339 8.99401 55.3789 9.85111C55.0239 10.7082 54.5035 11.487 53.8476 12.143L35.8803 30.1102C34.777 31.2135 33.3751 31.9629 31.8472 32.2685C31.8471 32.2685 31.8473 32.2685 31.8472 32.2685L23.5397 33.9313C23.1299 34.0133 22.7062 33.8851 22.4106 33.5896C22.115 33.2942 21.9867 32.8705 22.0686 32.4607L23.7284 24.1521C24.035 22.6241 24.787 21.221 25.8897 20.1196M25.8897 20.1196L43.857 2.15237C44.5129 1.49638 45.2917 0.97602 46.1488 0.620999M48.8522 2.58325C48.2528 2.58325 47.6593 2.70131 47.1055 2.9307C46.5517 3.16008 46.0486 3.49629 45.6247 3.92014L41.4466 8.09824L47.9032 14.5518L52.0798 10.3752C52.5036 9.95136 52.8398 9.44818 53.0692 8.8944C53.2986 8.34062 53.4167 7.74708 53.4167 7.14767C53.4167 6.54826 53.2986 5.95472 53.0692 5.40094C52.8398 4.84716 52.5036 4.34398 52.0798 3.92014C51.6559 3.49629 51.1528 3.16008 50.599 2.9307C50.0452 2.70131 49.4517 2.58325 48.8522 2.58325ZM46.1354 16.3195L39.6789 9.86601L27.6575 21.8874C26.9038 22.64 26.3892 23.5995 26.1796 24.6437C26.1796 24.6438 26.1796 24.6436 26.1796 24.6437L24.8874 31.1119L31.3566 29.8171C32.4011 29.6082 33.3586 29.0964 34.1125 28.3424L46.1354 16.3195ZM7.60791 8.85725C6.27531 8.85725 4.99729 9.38662 4.055 10.3289C3.11271 11.2712 2.58334 12.5492 2.58334 13.8818V48.392C2.58334 49.7246 3.11271 51.0026 4.055 51.9449C4.99729 52.8872 6.27531 53.4166 7.60791 53.4166H42.1181C43.4507 53.4166 44.7287 52.8872 45.671 51.9449C46.6133 51.0026 47.1426 49.7246 47.1426 48.392V38.9801C47.1426 38.2898 47.7023 37.7301 48.3926 37.7301C49.083 37.7301 49.6426 38.2898 49.6426 38.9801V48.392C49.6426 50.3876 48.8499 52.3015 47.4387 53.7127C46.0276 55.1238 44.1137 55.9166 42.1181 55.9166H7.60791C5.61227 55.9166 3.69836 55.1238 2.28723 53.7127C0.876101 52.3015 0.0833359 50.3876 0.0833359 48.392V13.8818C0.0833359 11.8862 0.876101 9.97228 2.28723 8.56115C3.69836 7.15002 5.61227 6.35725 7.60791 6.35725H17.0198C17.7101 6.35725 18.2698 6.9169 18.2698 7.60725C18.2698 8.29761 17.7101 8.85725 17.0198 8.85725H7.60791Z" fill="#3E3623"/>
</svg>
