<?xml version="1.0" encoding="UTF-8"?>
<!DOCTYPE svg PUBLIC "-//W3C//DTD SVG 1.1//EN" "http://www.w3.org/Graphics/SVG/1.1/DTD/svg11.dtd">
<!-- Creator: CorelDRAW -->
<svg xmlns="http://www.w3.org/2000/svg" xml:space="preserve" width="190.353mm" height="202.204mm" version="1.1" style="shape-rendering:geometricPrecision; text-rendering:geometricPrecision; image-rendering:optimizeQuality; fill-rule:evenodd; clip-rule:evenodd"
viewBox="0 0 4001.27 4250.38"
 xmlns:xlink="http://www.w3.org/1999/xlink"
 xmlns:xodm="http://www.corel.com/coreldraw/odm/2003">
 <defs>
  <style type="text/css">
   <![CDATA[
    .fil0 {fill:#E0E5F3;fill-rule:nonzero}
   ]]>
  </style>
 </defs>
 <g id="Слой_x0020_1">
  <metadata id="CorelCorpID_0Corel-Layer"/>
  <path class="fil0" d="M2330.46 4240.12c-6.07,4.12 -0,13.26 6.14,9.27l13.43 -8.86 32.93 -21.89c6.05,-4.21 -0.04,-13.23 -6.17,-9.25l-32.91 21.87 -13.43 8.86zm92.56 -61.61c-6.03,4.2 0.04,13.23 6.21,9.23l13.1 -8.77 33.06 -22.29c6.04,-4.21 -0.16,-13.26 -6.23,-9.21l-33.03 22.27 -13.1 8.77zm92.14 -62.25c-6.01,4.19 0.16,13.26 6.27,9.19l10.15 -6.89 35.78 -24.51c5.98,-4.16 -0.14,-13.27 -6.3,-9.16l-35.75 24.48 -10.15 6.89zm91.67 -62.93c-5.96,4.26 0.2,13.23 6.34,9.14l45.68 -31.76c5.98,-4.34 -0.32,-13.23 -6.37,-9.12l-45.64 31.74zm91.13 -63.66c-5.94,4.32 0.43,13.26 6.44,9.07l37.16 -26.29 8.23 -5.88c5.91,-4.29 -0.44,-13.25 -6.48,-9.04l-8.19 5.85 -37.16 26.29zm90.57 -64.49c-5.87,4.38 0.48,13.22 6.52,9.01l25.36 -18.26 19.73 -14.34c5.88,-4.38 -0.59,-13.25 -6.56,-8.98l-19.69 14.31 -25.36 18.26zm89.94 -65.36c-5.89,4.48 0.71,13.24 6.6,8.95l11.28 -8.27 33.48 -24.78c5.84,-4.43 -0.7,-13.24 -6.64,-8.93l-33.44 24.75 -11.28 8.27zm89.22 -66.3c-5.8,4.51 0.86,13.23 6.72,8.86l30.49 -23.02 13.87 -10.58c5.77,-4.48 -0.86,-13.23 -6.77,-8.83l-13.82 10.54 -30.49 23.02zm88.43 -67.38c-5.73,4.54 0.9,13.2 6.81,8.79l10.83 -8.34 33.12 -25.79c5.71,-4.63 -1.02,-13.19 -6.86,-8.76l-33.07 25.76 -10.83 8.34zm87.5 -68.52c-5.66,4.59 1.11,13.22 6.95,8.68l21.26 -16.93 22.17 -17.86c5.62,-4.76 -1.2,-13.15 -7,-8.64l-22.12 17.82 -21.26 16.93zm86.47 -69.81c-5.59,4.73 1.4,13.18 7.1,8.56l26.59 -21.93 16.26 -13.58c5.55,-4.8 -1.44,-13.16 -7.16,-8.52l-16.21 13.54 -26.59 21.93zm85.27 -71.26c-5.5,4.86 1.67,13.15 7.26,8.42l27.1 -23.22 15.08 -13.09c5.45,-4.92 -1.71,-13.13 -7.32,-8.37l-15.02 13.05 -27.1 23.22zm83.85 -72.91c-5.4,4.97 1.95,13.12 7.44,8.27l23.11 -20.65 18.27 -16.57c5.34,-5.02 -1.98,-13.09 -7.5,-8.21l-18.21 16.51 -23.11 20.65zm82.17 -74.78c-5.28,5.07 2.22,13.07 7.63,8.1l15.01 -14.03 25.48 -24.23c5.18,-5.18 -2.4,-13.01 -7.76,-7.97l-25.34 24.1 -15.01 14.03zm80.17 -76.9c-5.14,5.25 2.52,12.99 7.83,7.9l3.23 -3.17 21.62 -21.62 14.45 -14.71c5.04,-5.36 -2.79,-12.93 -7.97,-7.76l-14.37 14.63 -21.55 21.55 -3.23 3.17zm77.62 -79.37c-4.95,5.39 3.03,12.91 8.12,7.6l8.15 -8.62 19.2 -20.72 10.5 -11.56c4.84,-5.49 -3.3,-12.84 -8.28,-7.43l-10.42 11.48 -19.12 20.64 -8.15 8.62zm74.5 -82.26c-4.72,5.58 3.57,12.77 8.44,7.25l6.58 -7.57 16.85 -19.85 12.55 -15.15c4.57,-5.64 -3.81,-12.72 -8.61,-7.05l-12.47 15.05 -16.76 19.75 -6.58 7.57zm70.42 -85.63c-4.33,5.95 4.38,12.49 8.88,6.71l14.2 -18.55 14 -18.8 5.26 -7.27c4.19,-6.02 -4.75,-12.38 -9.06,-6.45l-5.16 7.14 -13.9 18.68 -14.2 18.55zm65.01 -89.83c-3.97,6.12 5.02,12.25 9.26,6.17l1.48 -2.18 11.79 -18 11.25 -17.8 5.55 -9.12c3.66,-6.36 -5.67,-11.95 -9.55,-5.7l-5.45 8.95 -11.16 17.64 -11.7 17.85 -1.48 2.18zm57.37 -94.56c-3.33,6.56 6.41,11.61 9.85,5.16l6.27 -11.69 8.62 -16.85 8.11 -16.66 2.19 -4.76c2.89,-6.76 -7.04,-11.21 -10.15,-4.55l-2.09 4.54 -8 16.45 -8.52 16.65 -6.27 11.69zm46.5 -100.16c-0.69,1.91 -0.33,3.93 0.95,5.49 2.78,3.26 7.98,2.37 9.48,-1.65l3.26 -8.54 5.59 -15.76 5.1 -15.58 3.95 -13.2c1.92,-7.03 -8.52,-10.14 -10.7,-3.05l-3.87 12.93 -5.01 15.32 -5.5 15.5 -3.26 8.54zm30.32 -105.78c-0.24,1.45 0.07,2.82 0.88,4.04 2.87,4.15 9.2,2.76 10.09,-2.19l1.37 -7.45 2.24 -14.56 1.77 -14.4 1.31 -14.24 0.32 -5.17c0.22,-7.35 -10.68,-7.82 -11.11,-0.5l-0.29 4.82 -1.28 13.9 -1.73 14.06 -2.19 14.24 -1.37 7.45zm6.89 -109.32c0.75,7.33 11.62,6.35 11.08,-0.95l-0.5 -7.32 -1.36 -13.28 -1.79 -13.13 -2.22 -12.98 -1.87 -9.07c-1.73,-7.15 -12.35,-4.74 -10.85,2.43l1.79 8.7 2.15 12.61 1.74 12.76 1.32 12.91 0.5 7.32zm-22.71 -106.78c2.91,6.79 12.97,2.63 10.3,-4.19l-4.4 -11.35 -5.08 -11.93 -5.47 -11.78 -5.85 -11.64 -2.46 -4.54c-3.66,-6.36 -13.23,-0.97 -9.69,5.45l2.3 4.24 5.7 11.33 5.32 11.46 4.94 11.59 4.4 11.35zm-51.71 -96.6c4.37,5.86 13.21,-0.48 9,-6.53l-2.7 -3.82 -8.07 -10.8 -8.42 -10.67 -8.77 -10.54 -7.06 -8.07c-4.98,-5.41 -13.12,1.94 -8.28,7.43l6.88 7.86 8.59 10.32 8.24 10.44 7.89 10.56 2.7 3.82zm-72.75 -82.46c5.45,4.92 12.88,-3.06 7.57,-8.15l-2.68 -2.55 -10.76 -9.79 -11.08 -9.67 -11.39 -9.55 -6.41 -5.17c-5.78,-4.49 -12.61,4.09 -6.91,8.72l6.25 5.04 11.22 9.41 10.91 9.52 10.59 9.63 2.68 2.55zm-85.76 -69.4c6.13,4.09 12.29,-5 6.3,-9.17l-10.35 -7.23 -13.17 -8.9 -13.45 -8.79 -9.53 -6.04c-6.27,-3.78 -12.06,5.43 -5.89,9.44l9.4 5.95 13.31 8.7 13.02 8.8 10.35 7.23zm-93.57 -59.07c6.47,3.45 11.76,-6.06 5.39,-9.73l-13.8 -7.75 -15.05 -8.21 -15.3 -8.12 -4.9 -2.53c-6.57,-3.23 -11.55,6.45 -5.05,9.91l4.79 2.47 15.19 8.06 14.93 8.15 13.8 7.75zm-98.35 -51.14c6.7,3.02 11.34,-6.82 4.75,-10.06l-8.79 -4.2 -16.49 -7.69 -16.72 -7.61 -8.64 -3.84c-6.73,-2.89 -11.16,7.17 -4.47,10.19l8.55 3.8 16.63 7.57 16.4 7.65 8.79 4.2zm-101.35 -45.12c6.81,2.7 10.98,-7.39 4.23,-10.29l-9.2 -3.82 -17.79 -7.23 -17.99 -7.16 -6.71 -2.62c-6.87,-2.57 -10.82,7.67 -4.01,10.38l6.64 2.59 17.91 7.13 17.71 7.2 9.2 3.82zm-103.35 -40.49c1.26,0.45 2.49,0.44 3.76,0.02 4.92,-1.8 4.93,-8.64 0.05,-10.47l-15.08 -5.55 -18.93 -6.84 -18.36 -6.51c-1.43,-0.48 -2.88,-0.41 -4.25,0.23 -4.46,2.19 -4.1,8.58 0.56,10.26l18.3 6.49 18.87 6.82 15.08 5.55zm-104.76 -36.91c6.98,2.26 10.45,-8.17 3.53,-10.55l-6.39 -2.15 -19.76 -6.56 -19.91 -6.51 -6.84 -2.2c-6.99,-2.15 -10.37,8.24 -3.38,10.6l6.79 2.18 19.87 6.49 19.71 6.54 6.39 2.15zm-105.73 -34.14c7.06,2.06 10.26,-8.37 3.3,-10.62l-21.21 -6.54 -20.62 -6.27 -11.42 -3.43c-7.05,-2.03 -10.18,8.5 -3.18,10.66l11.38 3.42 20.58 6.26 21.18 6.53zm-106.42 -31.97c7.07,1.93 10.11,-8.52 3.08,-10.69l-18.93 -5.49 -21.22 -6.09 -13.34 -3.78c-7.07,-1.93 -10.06,8.65 -3.02,10.7l34.5 9.85 18.93 5.49zm-106.94 -30.32c7.13,1.84 9.98,-8.7 2.95,-10.73l-18.98 -5.23 -34.69 -9.45c-7.08,-1.82 -9.97,8.7 -2.9,10.74l34.64 9.45 18.98 5.23zm-107.3 -29.1c1.42,0.37 2.81,0.19 4.1,-0.5 4.39,-2.48 3.58,-8.93 -1.26,-10.25 -17.92,-4.76 -35.85,-9.5 -53.78,-14.21 -7.2,-1.74 -9.85,8.84 -2.82,10.76 17.93,4.7 35.84,9.45 53.76,14.2zm-107.56 -28.24c7.15,1.73 9.85,-8.84 2.79,-10.77 -17.95,-4.65 -35.9,-9.29 -53.86,-13.9 -7.12,-1.73 -9.85,8.84 -2.76,10.77 17.95,4.61 35.9,9.24 53.83,13.89zm-107.71 -27.69c7.12,1.73 9.85,-8.84 2.75,-10.78l-53.9 -13.74c-7.11,-1.72 -9.85,8.84 -2.75,10.78l53.89 13.74zm-107.78 -27.46c7.11,1.72 9.85,-8.84 2.75,-10.78l-53.89 -13.72c-7.11,-1.72 -9.85,8.84 -2.75,10.78l53.9 13.72zm-107.79 -27.49c7.13,1.73 9.85,-8.84 2.77,-10.77l-53.86 -13.84c-7.15,-1.73 -9.86,8.84 -2.78,10.77l53.87 13.85zm-107.72 -27.81c7.2,1.75 9.85,-8.85 2.82,-10.76 -17.93,-4.69 -35.86,-9.38 -53.78,-14.11 -7.1,-1.83 -9.92,8.82 -2.85,10.75 17.93,4.74 35.87,9.43 53.81,14.12zm-107.57 -28.43c7.06,1.82 10,-8.69 2.88,-10.74l-26.18 -7.05 -27.47 -7.47c-7.12,-1.84 -9.98,8.7 -2.95,10.72l27.51 7.49 26.2 7.05zm-107.35 -29.34c1.23,0.34 2.44,0.26 3.63,-0.22 4.87,-2.06 4.44,-9.03 -0.63,-10.49l-29.43 -8.25 -24.05 -6.83c-7.07,-1.93 -10.11,8.52 -3.08,10.69l24.11 6.85 29.46 8.26zm-107.02 -30.58c7.15,1.95 10.11,-8.53 3.14,-10.67l-9.59 -2.81 -21.53 -6.38 -22.14 -6.64c-7.05,-2.03 -10.23,8.38 -3.25,10.64l22.21 6.67 21.57 6.39 9.59 2.81zm-106.57 -32.19c1.43,0.44 2.91,0.31 4.24,-0.38 4.39,-2.35 3.81,-8.71 -0.91,-10.24l-9.84 -3.06 -21 -6.63 -22.12 -7.09c-7.05,-2.17 -10.38,8.23 -3.46,10.57l22.21 7.12 21.04 6.65 9.84 3.06zm-105.95 -34.24c6.96,2.25 10.49,-8.05 3.56,-10.54l-7.85 -2.63 -20.35 -6.92 -24.33 -8.44c-6.94,-2.35 -10.63,7.89 -3.72,10.48l24.44 8.48 20.4 6.94 7.85 2.63zm-105.12 -36.79c1.41,0.51 2.89,0.45 4.25,-0.17 4.5,-2.17 4.21,-8.53 -0.42,-10.27l-22.92 -8.46 -19.44 -7.33 -9.63 -3.7c-6.88,-2.58 -10.82,7.67 -4.02,10.37l9.69 3.72 19.5 7.35 22.98 8.48zm-104.02 -39.99c6.81,2.7 10.98,-7.39 4.23,-10.29l-14.78 -6.01 -18.56 -7.71 -17.94 -7.61c-6.76,-2.79 -11.1,7.19 -4.38,10.22l18.01 7.64 18.63 7.74 14.78 6.01zm-102.42 -43.92c6.51,2.94 11.31,-6.67 4.76,-10.05l-3.75 -1.7 -17.57 -8.13 -17.36 -8.22 -11.63 -5.64c-6.67,-3.12 -11.43,6.67 -4.9,9.99l11.72 5.68 17.45 8.26 17.66 8.17 3.62 1.64zm-100.25 -48.87c6.55,3.33 11.64,-6.29 5.2,-9.84l-6.12 -3.19 -16.24 -8.69 -16.01 -8.79 -10.31 -5.81c-6.44,-3.54 -11.84,5.91 -5.52,9.66l10.43 5.88 16.11 8.85 16.35 8.75 6.12 3.19zm-97.07 -55.05c6.29,3.8 12.06,-5.5 5.87,-9.45l-3.56 -2.18 -14.76 -9.3 -14.5 -9.41 -13.7 -9.17c-6.09,-4.06 -12.28,5 -6.25,9.2l13.83 9.25 14.63 9.49 14.89 9.38 3.56 2.18zm-92.4 -62.86c5.9,4.4 12.53,-4.26 6.8,-8.8l-9.76 -7.42 -12.83 -10.09 -12.55 -10.21 -8.07 -6.81c-5.58,-4.72 -12.77,3.57 -7.25,8.44l8.23 6.94 12.69 10.33 12.98 10.21 9.76 7.42zm-85.2 -72.5c5.25,5.14 13,-2.63 7.87,-7.86l-9.22 -9.05 -10.7 -10.95 -11.16 -11.76 -7.47 -8.02c-5.01,-5.33 -13.09,2.09 -8.17,7.55l7.54 8.09 11.22 11.83 10.87 11.12 9.22 9.05zm-76.19 -81.57c4.8,5.44 13.04,-1.45 8.53,-7.13l-7.85 -9.06 -9.78 -11.5 -9.55 -11.45 -8.61 -10.53c-4.66,-5.62 -13.19,1.16 -8.65,7l8.68 10.62 9.62 11.53 9.84 11.58 7.76 8.95zm-70.22 -86.72c4.43,5.83 13.24,-0.71 8.92,-6.65l-1.78 -2.36 -8.23 -11.18 -8.02 -11.13 -7.81 -11.08 -6.38 -9.27c-4.2,-6.02 -13.26,0.16 -9.2,6.26l6.46 9.37 7.88 11.18 8.09 11.23 8.31 11.27 1.78 2.36zm-62.95 -92.33c3.86,6.22 13.21,0.65 9.53,-5.73l-5.99 -9.84 -6.36 -10.75 -6.17 -10.69 -5.97 -10.64 -3.25 -5.97c-3.53,-6.43 -13.2,-1.23 -9.8,5.26l3.31 6.09 6.03 10.76 6.23 10.81 6.43 10.85 5.99 9.84zm-53.3 -98.27c0.63,1.35 1.71,2.37 3.12,2.9 4.66,1.71 9.03,-3.01 7,-7.53l-3.51 -7.53 -4.62 -10.28 -4.44 -10.23 -4.25 -10.18 -4.07 -10.12 -0.92 -2.39c-2.66,-6.81 -12.9,-3 -10.41,3.94l0.98 2.54 4.13 10.26 4.31 10.31 4.5 10.37 4.68 10.42 3.51 7.53zm-40.57 -104.29c2.15,6.99 12.69,3.87 10.66,-3.2l-1.56 -5.08 -2.84 -9.74 -2.67 -9.68 -2.5 -9.63 -2.34 -9.57 -2.18 -9.56c-0.3,-1.46 -1.14,-2.71 -2.38,-3.53 -4.2,-2.69 -9.46,0.88 -8.51,5.75l2.26 9.89 2.37 9.73 2.55 9.79 2.71 9.84 2.89 9.9 1.56 5.08zm-23.92 -109.44c0.94,7.08 11.6,6.13 11.06,-1.23l-1.27 -10.73 -0.91 -9.05 -0.76 -8.99 -0.61 -8.93 -0.46 -8.87 -0.3 -8.45c-0.32,-7.35 -11.23,-7.01 -11.12,0.31l0.31 8.64 0.47 9.05 0.62 9.11 0.77 9.17 0.92 9.23 1.28 10.77zm-3 -112.17c-0.54,7.32 10.33,8.28 11.08,0.97l0.43 -5.4 0.8 -8.32 0.93 -8.26 1.06 -8.2 1.19 -8.13 1.32 -8.07 1.46 -8.09c1.39,-7.18 -9.29,-9.43 -10.9,-2.24l-1.53 8.45 -1.35 8.25 -1.22 8.32 -1.09 8.38 -0.95 8.44 -0.82 8.51 -0.43 5.4zm20.92 -110.22c-2.07,7.08 8.37,10.26 10.62,3.31l2.63 -8.25 2.51 -7.42 2.62 -7.36 2.73 -7.29 2.84 -7.23 2.94 -7.16 2.92 -6.79c2.89,-6.74 -7.16,-11.16 -10.18,-4.48l-2.99 6.95 -3.01 7.32 -2.9 7.39 -2.79 7.46 -2.68 7.53 -2.57 7.6 -2.68 8.42zm45.1 -102.85c-3.66,6.35 5.67,11.96 9.56,5.7l3.29 -5.61 3.92 -6.47 4.01 -6.4 4.1 -6.33 4.19 -6.26 4.28 -6.19 4.36 -6.12 1.95 -2.66c4.32,-5.94 -4.49,-12.48 -8.92,-6.65l-2.05 2.79 -4.45 6.25 -4.37 6.32 -4.28 6.4 -4.19 6.47 -4.1 6.54 -4.01 6.62 -3.29 5.61zm66.26 -90.48c-4.86,5.51 3.19,12.85 8.22,7.49l5.97 -6.5 5.11 -5.39 5.18 -5.31 5.24 -5.23 5.31 -5.16 5.37 -5.08 6.74 -6.18c5.43,-4.9 -1.82,-13.13 -7.38,-8.32l-6.96 6.38 -5.48 5.18 -5.41 5.26 -5.35 5.34 -5.28 5.42 -5.22 5.49 -6.08 6.61zm83.16 -75.24c-5.87,4.45 0.7,13.24 6.6,8.95l7.46 -5.46 5.96 -4.23 6 -4.15 6.04 -4.06 6.09 -3.98 6.12 -3.9 8.01 -4.94c6.26,-3.88 0.65,-13.21 -5.69,-9.56l-1.97 1.19 -6.28 3.89 -6.24 3.97 -6.2 4.06 -6.16 4.14 -6.11 4.22 -6.07 4.3 -7.57 5.55zm95.82 -58.15c-6.57,3.34 -1.78,13.11 4.86,10.01l6.64 -3.18 6.45 -2.99 6.48 -2.9 6.49 -2.82 6.51 -2.73 6.53 -2.65 6.54 -2.56 4.96 -1.87c6.87,-2.68 3.01,-12.9 -3.87,-10.43l-5.08 1.92 -6.67 2.61 -6.65 2.7 -6.64 2.79 -6.62 2.87 -6.6 2.96 -6.58 3.05 -6.76 3.24zm105.07 -39.2c-7.05,1.92 -4.35,12.5 2.81,10.76l8.48 -2.18 6.6 -1.59 6.59 -1.5 6.59 -1.41 6.58 -1.32 6.57 -1.23 6.56 -1.14 5.87 -0.94c7.19,-1.18 5.67,-11.97 -1.69,-11l-6.01 0.96 -6.71 1.16 -6.71 1.26 -6.72 1.35 -6.73 1.44 -6.73 1.53 -6.73 1.63 -8.61 2.22zm110.99 -16.91c-7.37,0.33 -7.02,11.23 0.29,11.12l4.19 -0.14 6.34 -0.12 6.31 -0.02 6.28 0.07 6.25 0.17 6.22 0.26 6.18 0.36 6.14 0.46 6.85 0.63c7.28,0.75 8.57,-10.09 1.27,-11.05l-7.21 -0.67 -6.32 -0.47 -6.36 -0.37 -6.39 -0.27 -6.42 -0.17 -6.45 -0.07 -6.48 0.02 -6.51 0.12 -4.19 0.14zm111.87 11.77c-7.06,-1.93 -10.06,8.65 -3.01,10.71l4.03 1.09 5.58 1.62 5.52 1.73 5.47 1.82 5.4 1.92 5.34 2.02 5.28 2.12 5.22 2.22 5.15 2.32 4.18 1.99c6.67,3.12 11.43,-6.67 4.9,-9.99l-4.39 -2.1 -5.36 -2.42 -5.43 -2.31 -5.49 -2.21 -5.55 -2.1 -5.61 -2 -5.67 -1.89 -5.73 -1.79 -5.78 -1.68 -4.03 -1.09zm101.08 49.82c-5.74,-4.55 -12.65,3.87 -7.03,8.62l1.79 1.43 4.25 3.55 4.16 3.66 4.08 3.76 3.99 3.87 3.9 3.97 3.82 4.08 3.72 4.19 3.63 4.29 3.54 4.4 1.06 1.39c4.43,5.84 13.24,-0.7 8.93,-6.64l-1.23 -1.61 -3.71 -4.62 -3.81 -4.5 -3.91 -4.39 -4 -4.28 -4.1 -4.17 -4.19 -4.06 -4.28 -3.95 -4.37 -3.83 -4.45 -3.72 -1.79 -1.43zm68.98 89.22c-3.13,-6.7 -13.04,-2.2 -10.17,4.52l0.96 2.1 2.41 5.61 2.3 5.73 2.19 5.84 2.07 5.96 1.96 6.07 1.84 6.19 1.72 6.3 1.6 6.42 0.3 1.31c1.56,6.99 12.1,5.07 10.91,-2.2l-0.38 -1.69 -1.66 -6.66 -1.79 -6.54 -1.91 -6.43 -2.04 -6.31 -2.16 -6.2 -2.28 -6.09 -2.4 -5.97 -2.52 -5.86 -0.96 -2.1zm26.25 109.46c-0.13,-1.79 -1.04,-3.31 -2.53,-4.29 -3.9,-2.46 -8.83,0.46 -8.57,5.05l0.45 7.6 0.3 7.61 0.16 7.73 0.03 7.85 -0.12 7.97 -0.26 8.09 -0.4 8.03c-0.32,7.34 10.57,7.98 11.11,0.65l0.41 -8.21 0.27 -8.29 0.12 -8.17 -0.03 -8.05 -0.17 -7.93 -0.31 -7.82 -0.46 -7.82zm-5.99 112.15c0.25,-1.5 -0.09,-2.91 -0.95,-4.15 -2.92,-4.03 -9.14,-2.59 -10.02,2.29l-1.05 6.5 -1.28 7.29 -1.36 7.23 -1.44 7.18 -1.52 7.12 -1.6 7.07 -1.67 7.02 -1.15 4.59c-1.73,7.13 8.84,9.85 10.77,2.77l1.19 -4.72 1.7 -7.15 1.62 -7.2 1.54 -7.26 1.47 -7.31 1.39 -7.37 1.3 -7.42 1.05 -6.5zm-27.61 108.63c0.5,-1.4 0.44,-2.9 -0.18,-4.25 -2.13,-4.49 -8.52,-4.2 -10.27,0.44l-1.28 3.57 -2.42 6.5 -2.49 6.45 -2.56 6.4 -2.63 6.35 -2.7 6.3 -2.77 6.25 -2.84 6.2 -1.35 2.84c-3.11,6.65 6.79,11.39 10.03,4.82l1.4 -2.96 2.9 -6.32 2.83 -6.38 2.76 -6.43 2.68 -6.48 2.61 -6.53 2.54 -6.58 2.47 -6.63 1.28 -3.57zm-47.94 101.36c3.74,-6.3 -5.64,-12 -9.51,-5.76l-1.32 2.21 -3.51 5.72 -3.58 5.67 -3.64 5.62 -3.7 5.57 -3.76 5.53 -3.83 5.48 -3.89 5.43 -3.35 4.57c-4.31,5.92 4.49,12.47 8.93,6.63l3.43 -4.67 3.96 -5.54 3.9 -5.59 3.84 -5.63 3.77 -5.68 3.71 -5.73 3.64 -5.78 3.58 -5.83 1.32 -2.21zm-66.59 90.22c4.86,-5.5 -3.19,-12.85 -8.23,-7.48l-4.08 4.54 -4.53 4.93 -4.59 4.89 -4.65 4.84 -4.7 4.8 -4.75 4.76 -4.81 4.71 -6.33 6.04c-5.29,5.08 2.13,13.06 7.58,8.14l6.49 -6.2 4.89 -4.79 4.83 -4.84 4.78 -4.88 4.73 -4.93 4.67 -4.97 4.62 -5.02 4.08 -4.54zm-81.33 77c5.68,-4.61 -1.13,-13.21 -6.94,-8.7l-3.05 2.46 -5.37 4.24 -5.42 4.2 -5.47 4.16 -5.52 4.12 -5.56 4.08 -5.61 4.04 -8.21 5.77c-2.18,1.52 -2.99,4.29 -1.97,6.75 1.45,3.27 5.3,4.4 8.28,2.42l8.37 -5.88 5.69 -4.09 5.64 -4.13 5.6 -4.18 5.55 -4.22 5.5 -4.26 5.45 -4.31 3.05 -2.46zm-91.82 63.95c6.25,-3.88 0.66,-13.22 -5.7,-9.55l-3.91 2.36 -6.08 3.59 -6.12 3.56 -6.16 3.52 -6.2 3.48 -6.24 3.44 -6.28 3.4 -7.15 3.8c-6.48,3.46 -1.4,13.19 5.12,9.87l7.29 -3.87 6.35 -3.44 6.31 -3.48 6.27 -3.52 6.23 -3.56 6.19 -3.6 6.16 -3.64 3.91 -2.36zm-98.82 52.2c1.38,-0.65 2.35,-1.71 2.89,-3.13 1.67,-4.69 -3.03,-9.02 -7.54,-6.98l-7.99 3.66 -6.67 2.99 -6.7 2.96 -6.73 2.92 -6.76 2.88 -6.79 2.85 -9.14 3.75c-6.77,2.8 -2.68,12.99 4.15,10.32l9.26 -3.8 6.85 -2.87 6.82 -2.91 6.79 -2.95 6.76 -2.98 6.73 -3.02 8.06 -3.69zm-103.44 42.12c6.88,-2.58 3.22,-12.83 -3.73,-10.48 -17.35,6.23 -34.91,12.11 -52.5,17.63 -6.96,2.25 -3.77,12.69 3.3,10.62 7.61,-2.4 15.19,-4.87 22.76,-7.36l14.37 -4.86c5.27,-1.83 10.55,-3.66 15.81,-5.55zm-106.45 33.58c7.04,-2.03 4.18,-12.56 -2.93,-10.73 -17.83,4.92 -35.7,9.54 -53.67,13.9 -7.12,1.83 -4.57,12.42 2.6,10.82 18.08,-4.4 36.06,-9.04 54,-13.99zm-108.4 26.31c7.15,-1.6 4.93,-12.28 -2.29,-10.88 -18.09,3.83 -36.24,7.34 -54.42,10.7 -7.18,1.39 -5.28,12.14 1.99,10.94 18.29,-3.37 36.53,-6.9 54.72,-10.75zm-109.71 20.05c7.19,-1.18 5.67,-11.97 -1.68,-11 -18.29,2.82 -36.58,5.48 -54.92,7.89 -7.29,1.07 -5.84,11.88 1.42,11.03 18.43,-2.41 36.81,-5.08 55.18,-7.92zm-110.52 14.55c7.26,-0.85 6.17,-11.71 -1.18,-11.06 -18.4,1.98 -36.8,3.77 -55.24,5.38 -7.33,0.75 -6.35,11.62 0.95,11.08 18.51,-1.6 36.99,-3.41 55.47,-5.4zm-111.03 9.64c6.99,-0.51 6.85,-10.9 -0.3,-11.11 -18.35,0.54 -37.36,2.26 -55.84,3.1 -7.33,0.43 -6.84,11.33 0.49,11.11 18.56,-0.83 37.11,-1.89 55.65,-3.1zm-111.33 5.12c7.37,-0.33 7.02,-11.23 -0.29,-11.12 -18.5,0.49 -37,0.8 -55.5,0.94 -7.16,0.11 -7.44,10.8 -0.08,11.12 18.57,0 37.3,-0.46 55.86,-0.95zm-111.44 0.84c7.33,0 7.5,-10.91 0.15,-11.12 -18.45,-0.23 -37.07,-0.44 -55.5,-1.16 -7.37,-0.11 -7.66,10.8 -0.36,11.12 18.53,0.66 37.16,0.93 55.71,1.17zm-111.38 -3.41c7.32,0.32 7.89,-10.68 0.57,-11.11 -18.29,-0.91 -37.18,-1.72 -55.39,-3.34 -7.32,-0.43 -8.12,10.45 -0.81,11.09 18.49,1.39 37.11,2.42 55.63,3.35zm-111.18 -7.89c1.5,0.13 2.9,-0.3 4.07,-1.25 3.8,-3.18 1.92,-9.31 -3.02,-9.82 -18.42,-1.73 -36.8,-3.66 -55.18,-5.82 -7.32,-0.75 -8.58,10.09 -1.31,11.05 18.47,2.16 36.92,4.11 55.43,5.84z"/>
 </g>
</svg>
