<?xml version="1.0" encoding="UTF-8"?>
<!DOCTYPE svg PUBLIC "-//W3C//DTD SVG 1.1//EN" "http://www.w3.org/Graphics/SVG/1.1/DTD/svg11.dtd">
<!-- Creator: CorelDRAW -->
<svg xmlns="http://www.w3.org/2000/svg" xml:space="preserve" width="90.5496mm" height="114.964mm" version="1.1" style="shape-rendering:geometricPrecision; text-rendering:geometricPrecision; image-rendering:optimizeQuality; fill-rule:evenodd; clip-rule:evenodd"
viewBox="0 0 827.9 1051.12"
 xmlns:xlink="http://www.w3.org/1999/xlink"
 xmlns:xodm="http://www.corel.com/coreldraw/odm/2003">
 <defs>
  <style type="text/css">
   <![CDATA[
    .fil0 {fill:#E0E5F3;fill-rule:nonzero}
   ]]>
  </style>
 </defs>
 <g id="Слой_x0020_1">
  <metadata id="CorelCorpID_0Corel-Layer"/>
  <path class="fil0" d="M2.14 1046.3c-3.16,0.37 -2.68,5.09 0.51,4.81l2.88 -0.3 8.73 -0.94 8.68 -0.98 3.79 -0.45c3.15,-0.42 2.61,-5.13 -0.58,-4.8l-3.77 0.45 -8.65 0.98 -8.7 0.94 -2.88 0.3zm675.82 -856.75l-1.13 -1.65c4.02,-0.19 19.29,-5.88 23.87,-7.54 2.98,-1.12 1.4,-5.58 -1.64,-4.55 -4.14,1.5 -23.39,6.06 -24.47,8.76l-0.3 -0.44 -1.76 -2.68 -1.18 -1.83c-1.73,-2.67 -5.77,-0.12 -4.08,2.6l1.2 1.87 1.79 2.72 1.84 2.74 1.89 2.76 1.93 2.77 1.98 2.79 2.04 2.82 1.16 1.58c1.91,2.56 5.76,-0.26 3.91,-2.85l-1.16 -1.58 -2.01 -2.78 -1.96 -2.76 -1.91 -2.74zm-627.85 851.09c-3.14,0.46 -2.53,5.17 0.65,4.79l6.38 -0.85 8.43 -1.17 9.18 -1.33c3.14,-0.51 2.45,-5.2 -0.73,-4.78l-9.13 1.32 -8.41 1.17 -6.38 0.85zm47.8 -7.03c-3.15,0.56 -2.38,5.24 0.78,4.78l8.32 -1.37 8.14 -1.39 7.43 -1.31c3.14,-0.61 2.3,-5.28 -0.85,-4.76l-7.4 1.3 -8.11 1.38 -8.29 1.37zm47.56 -8.47c-3.12,0.65 -2.22,5.31 0.93,4.75l8.72 -1.72 7.85 -1.59 7.18 -1.5c3.11,-0.7 2.14,-5.34 -1,-4.73l-7.16 1.49 -7.82 1.59 -8.69 1.71zm47.26 -9.97c-3.09,0.75 -2.06,5.37 1.08,4.72l7.66 -1.77 7.56 -1.79 8.37 -2.04c0.64,-0.16 1.14,-0.54 1.49,-1.1 1.09,-1.87 -0.57,-4.1 -2.67,-3.59l-8.31 2.02 -7.53 1.79 -7.64 1.77zm46.88 -11.56c-3.08,0.89 -1.82,5.46 1.26,4.67l5.22 -1.39 7.27 -1.98 7.22 -2.01 3.65 -1.04c3.06,-0.94 1.73,-5.49 -1.34,-4.65l-3.62 1.03 -7.2 2 -7.24 1.97 -5.22 1.39zm46.45 -13.22c-3.04,0.98 -1.66,5.51 1.42,4.63l8.5 -2.62 6.94 -2.19 7.69 -2.48c0.62,-0.21 1.1,-0.63 1.4,-1.21 0.95,-1.94 -0.87,-4.04 -2.92,-3.38l-7.64 2.47 -6.91 2.18 -8.47 2.61zm45.9 -14.97c-2.99,1.08 -1.43,5.59 1.6,4.57l3.31 -1.15 6.65 -2.36 6.6 -2.38 6.25 -2.3c2.99,-1.17 1.31,-5.61 -1.68,-4.54l-6.22 2.29 -6.58 2.38 -6.62 2.35 -3.31 1.15zm45.26 -16.79c-2.93,1.21 -1.23,5.63 1.79,4.49l3.41 -1.35 6.32 -2.54 6.27 -2.57 6.46 -2.69c2.94,-1.33 1.03,-5.66 -1.9,-4.45l-6.4 2.67 -6.24 2.56 -6.29 2.53 -3.41 1.35zm44.5 -18.71c-2.89,1.35 -0.96,5.67 1.98,4.41l1.97 -0.88 5.99 -2.71 5.94 -2.74 5.9 -2.76 2.22 -1.06c2.86,-1.41 0.8,-5.71 -2.09,-4.36l-2.2 1.05 -5.87 2.75 -5.92 2.73 -5.96 2.7 -1.97 0.88zm43.59 -20.71c-2.82,1.51 -0.66,5.72 2.2,4.31l4.78 -2.43 5.62 -2.9 5.57 -2.92 5.55 -2.95c0.44,-0.24 0.76,-0.57 0.99,-1.01 3.16,-6.5 -6.75,-1.41 -8.79,-0.32l-5.54 2.9 -5.59 2.88 -4.78 2.43zm42.54 -22.81c-2.75,1.63 -0.4,5.74 2.4,4.2l5.7 -3.27 5.25 -3.06 5.2 -3.08 4.77 -2.87c2.71,-1.68 0.23,-5.76 -2.51,-4.14l-4.74 2.85 -5.17 3.06 -5.22 3.05 -5.67 3.25zm41.26 -24.98c-2.65,1.77 -0.05,5.77 2.65,4.05l4.88 -3.16 4.88 -3.21 4.83 -3.23 5.61 -3.81c2.59,-1.85 -0.09,-5.76 -2.76,-3.98l-5.56 3.78 -4.81 3.21 -4.85 3.19 -4.88 3.16zm39.8 -27.25c-2.55,1.93 0.27,5.75 2.87,3.9l2.62 -1.91 4.51 -3.34 4.47 -3.36 4.42 -3.37 3.36 -2.6c2.49,-2.02 -0.44,-5.74 -2.98,-3.82l-3.33 2.58 -4.4 3.35 -4.44 3.34 -4.49 3.32 -2.62 1.91zm38.08 -29.58c-2.41,2.09 0.63,5.72 3.11,3.71l3.3 -2.75 4.11 -3.47 4.06 -3.49 4.02 -3.5 2.93 -2.59c2.35,-2.16 -0.81,-5.7 -3.22,-3.61l-2.91 2.57 -3.99 3.47 -4.03 3.46 -4.08 3.45 -3.3 2.75zm36.07 -31.99c-2.28,2.23 1.03,5.68 3.35,3.49l2.34 -2.23 3.7 -3.58 3.66 -3.59 3.61 -3.6 3.98 -4.04c2.18,-2.32 -1.22,-5.62 -3.48,-3.36l-3.93 3.98 -3.59 3.57 -3.63 3.56 -3.68 3.55 -2.34 2.23zm33.72 -34.45c-2.07,2.35 1.29,5.55 3.54,3.3 1.16,-1.26 2.31,-2.56 3.46,-3.84l3.26 -3.68 3.21 -3.68 3.17 -3.69 2.92 -3.45c0.37,-0.45 0.56,-0.95 0.57,-1.53 0,-2.28 -2.81,-3.3 -4.27,-1.57l-2.89 3.42 -3.15 3.66 -3.19 3.66 -3.23 3.65 -3.39 3.76zm30.94 -36.9c-1.9,2.55 1.89,5.45 3.85,2.92l2.8 -3.65 2.82 -3.75 2.77 -3.75 2.73 -3.76 3.3 -4.64c1.78,-2.68 -2.13,-5.35 -3.97,-2.76l-3.26 4.58 -2.71 3.72 -2.75 3.72 -2.79 3.71 -2.8 3.65zm27.73 -39.38c-1.68,2.71 2.35,5.27 4.09,2.59l1.03 -1.62 2.38 -3.79 2.34 -3.79 2.29 -3.8 2.25 -3.8 2.32 -3.99c1.54,-2.79 -2.62,-5.14 -4.22,-2.37l-2.27 3.92 -2.23 3.76 -2.27 3.76 -2.32 3.76 -2.36 3.76 -1.03 1.62zm23.95 -41.75c-1.4,2.86 2.83,5.02 4.32,2.18l0.65 -1.28 1.9 -3.81 1.86 -3.81 1.82 -3.81 1.77 -3.81 1.73 -3.81 0.73 -1.63c1.25,-2.93 -3.12,-4.86 -4.43,-1.94l-0.71 1.59 -1.71 3.77 -1.76 3.77 -1.8 3.77 -1.84 3.77 -1.88 3.77 -0.65 1.28zm19.51 -43.95c-1.08,2.99 3.37,4.67 4.53,1.69l0.94 -2.49 1.39 -3.79 1.35 -3.79 1.31 -3.79 1.26 -3.79 1.22 -3.78 0.49 -1.56c0.89,-3.08 -3.64,-4.46 -4.63,-1.42l-0.47 1.51 -1.21 3.74 -1.25 3.74 -1.29 3.74 -1.33 3.75 -1.37 3.75 -0.94 2.49zm14.32 -45.88c-0.7,3.12 3.91,4.23 4.7,1.13l0.33 -1.34 0.88 -3.74 0.84 -3.74 0.8 -3.73 0.76 -3.72 0.71 -3.72 0.7 -3.85c0.47,-3.17 -4.21,-3.92 -4.77,-0.79l-0.68 3.75 -0.7 3.67 -0.75 3.67 -0.79 3.68 -0.83 3.69 -0.87 3.69 -0.33 1.34zm8.26 -47.29c-0.28,3.16 4.44,3.68 4.81,0.47l0.16 -1.5 0.34 -3.65 0.3 -3.63 0.26 -3.62 0.21 -3.62 0.17 -3.61 0.16 -4.7c0,-3.22 -4.75,-3.26 -4.84,-0.09l-0.15 4.59 -0.17 3.55 -0.21 3.56 -0.25 3.57 -0.29 3.58 -0.33 3.59 -0.16 1.5zm1.26 -47.93c0.23,3.16 4.97,2.92 4.83,-0.31l-0.16 -2.87 -0.24 -3.49 -0.28 -3.48 -0.32 -3.46 -0.36 -3.45 -0.41 -3.44 -0.54 -4.1c-0.52,-3.15 -5.21,-2.46 -4.79,0.71l0.53 3.98 0.4 3.38 0.36 3.39 0.32 3.4 0.28 3.42 0.24 3.43 0.16 2.87zm-6.64 -47.44c0.8,3.09 5.4,1.99 4.7,-1.13l-0.51 -2.17 -0.81 -3.28 -0.85 -3.27 -0.89 -3.25 -0.93 -3.23 -0.98 -3.21 -1.02 -3.2 -0.62 -1.88c-1.08,-3.01 -5.56,-1.48 -4.58,1.56l0.61 1.82 1 3.14 0.96 3.15 0.92 3.17 0.88 3.19 0.84 3.21 0.8 3.22 0.51 2.17zm-15.16 -45.4c1.36,2.9 5.67,0.96 4.42,-1.97l-1.49 -3.29 -1.42 -3 -1.46 -2.98 -1.5 -2.96 -1.54 -2.94 -1.58 -2.92 -1.62 -2.9 -0.47 -0.81c-0.48,-0.79 -1.3,-1.24 -2.23,-1.19 -1.81,0.11 -2.86,2.07 -1.95,3.64l0.43 0.75 1.59 2.84 1.54 2.86 1.51 2.88 1.47 2.9 1.43 2.92 1.39 2.94 1.47 3.23zm-23.74 -41.49c1.91,2.56 5.75,-0.2 3.92,-2.83l-0.71 -1 -1.97 -2.69 -2.01 -2.66 -2.05 -2.64 -2.09 -2.61 -2.13 -2.59 -2.17 -2.56 -2.06 -2.36c-2.12,-2.35 -5.71,0.74 -3.63,3.2l2.01 2.31 2.12 2.51 2.09 2.54 2.05 2.56 2.01 2.59 1.97 2.61 1.93 2.63 0.71 1zm-31.6 -35.98c2.33,2.19 5.63,-1.22 3.37,-3.47l-4 -3.9 -3.28 -3.25 -3.22 -3.23 -3.17 -3.21 -3.37 -3.46c-2.24,-2.28 -5.68,1.02 -3.5,3.34l3.41 3.51 3.19 3.23 3.25 3.25 3.3 3.27 4.02 3.92zm-33.72 -34.92c2.17,2.36 5.71,-0.84 3.61,-3.23l-3.42 -3.84 -2.65 -3.03 -2.59 -3 -2.54 -2.99 -2.49 -2.96 -2.01 -2.44c-0.43,-0.51 -0.97,-0.8 -1.63,-0.87 -2.14,-0.2 -3.47,2.27 -2.11,3.94l2.04 2.46 2.51 2.99 2.56 3.01 2.62 3.03 2.67 3.05 3.45 3.87zm-56.98 -78.65c1.54,2.8 5.72,0.59 4.28,-2.26l-1.65 -3.15 -1.25 -2.45 -1.2 -2.43 -1.16 -2.41 -1.11 -2.39 -1.07 -2.37 -1.03 -2.35 -0.98 -2.33 -0.72 -1.77c-1.22,-2.95 -5.65,-1.17 -4.49,1.8l0.74 1.82 1.01 2.38 1.05 2.4 1.09 2.42 1.14 2.44 1.18 2.46 1.23 2.48 1.27 2.5 1.68 3.2zm-18.02 -45.44c0.75,3.1 5.41,2.01 4.71,-1.1l-0.47 -1.95 -0.46 -2.06 -0.43 -2.04 -0.39 -2.02 -0.35 -2 -0.32 -1.98 -0.28 -1.96 -0.25 -1.94 -0.21 -1.92 -0.18 -1.9 -0.14 -1.88 -0.11 -1.82c-0.19,-3.18 -4.97,-2.94 -4.83,0.25l0.12 1.9 0.15 1.96 0.19 1.98 0.22 2 0.26 2.02 0.29 2.04 0.33 2.05 0.37 2.07 0.4 2.09 0.44 2.11 0.48 2.13 0.47 1.95zm-1.98 -48.99c-0.61,3.14 4.04,4.11 4.73,1l0.43 -1.96 0.37 -1.53 0.4 -1.51 0.42 -1.49 0.45 -1.47 0.47 -1.45 0.5 -1.43 0.52 -1.41 0.55 -1.39 0.57 -1.37 0.6 -1.35 0.62 -1.33 0.64 -1.31 0.67 -1.29 0.86 -1.58c1.57,-2.78 -2.56,-5.17 -4.19,-2.43l-0.96 1.75 -0.71 1.38 -0.69 1.4 -0.66 1.42 -0.64 1.44 -0.61 1.46 -0.58 1.48 -0.56 1.5 -0.53 1.52 -0.5 1.54 -0.48 1.56 -0.45 1.58 -0.42 1.6 -0.39 1.62 -0.45 2.06zm24.07 -42.75c-2.32,2.18 0.86,5.69 3.26,3.57l1.13 -1.02 1.05 -0.91 1.06 -0.89 1.08 -0.87 1.09 -0.85 1.11 -0.83 1.12 -0.81 1.13 -0.79 1.15 -0.77 1.16 -0.75 1.17 -0.74 1.18 -0.71 1.2 -0.7 1.21 -0.68 1.22 -0.66 1.23 -0.64 1.07 -0.53c2.85,-1.45 0.77,-5.7 -2.12,-4.35l-1.14 0.57 -1.3 0.67 -1.29 0.69 -1.28 0.71 -1.27 0.73 -1.25 0.76 -1.24 0.78 -1.23 0.8 -1.22 0.82 -1.2 0.84 -1.19 0.86 -1.17 0.88 -1.16 0.9 -1.14 0.92 -1.13 0.94 -1.11 0.96 -1.2 1.08zm43.94 -21.89c-0.63,0.13 -1.18,0.5 -1.53,1.04 -1.17,1.83 0.38,4.11 2.5,3.7 0.99,-0.21 1.99,-0.39 2.98,-0.57l1.37 -0.23 1.37 -0.21 1.38 -0.19 2.76 -0.32 2.76 -0.25 1.38 -0.09 1.38 -0.07 1.38 -0.05 1.38 -0.03 1.38 -0.02 1.38 0 1.37 0.02 1.22 0.04c3.12,0.09 3.44,-4.55 0.25,-4.83l-1.35 -0.04 -1.44 -0.02 -1.44 -0 -1.45 0.02 -1.45 0.04 -1.45 0.06 -1.45 0.08 -1.45 0.1 -1.45 0.12 -1.45 0.14 -1.45 0.16 -1.44 0.18 -1.44 0.2 -1.44 0.22 -1.44 0.24 -1.43 0.26 -1.68 0.33zm49.06 2.02c-3.04,-0.94 -4.51,3.58 -1.48,4.61l2.03 0.65 1.24 0.43 1.23 0.45 1.22 0.47 1.21 0.49 1.19 0.51 1.18 0.53 1.17 0.55 1.16 0.57 1.14 0.58 1.13 0.6 1.12 0.62 1.1 0.64 1.09 0.66 1.07 0.68 1.06 0.7 1.61 1.13c2.6,1.86 5.41,-2 2.86,-3.9l-0.65 -0.46 -1.12 -0.77 -1.14 -0.75 -1.15 -0.73 -1.16 -0.71 -1.18 -0.69 -1.19 -0.67 -1.21 -0.64 -1.22 -0.62 -1.23 -0.6 -1.25 -0.58 -1.26 -0.56 -1.27 -0.54 -1.28 -0.52 -1.29 -0.5 -1.3 -0.48 -1.31 -0.46 -2.1 -0.68zm39.43 29.19c-1.65,-2.74 -5.76,-0.31 -4.17,2.45l0.67 1.12 0.64 1.11 0.61 1.13 0.59 1.15 0.57 1.17 0.54 1.19 0.52 1.21 0.49 1.23 0.47 1.25 0.45 1.27 0.42 1.29 0.39 1.31 0.37 1.33 0.34 1.35 0.31 1.37 0.28 1.39 0.32 1.8c0.52,3.15 5.2,2.46 4.79,-0.71l-0.35 -2.01 -0.31 -1.49 -0.34 -1.47 -0.36 -1.46 -0.39 -1.43 -0.42 -1.41 -0.45 -1.4 -0.48 -1.37 -0.51 -1.35 -0.54 -1.33 -0.56 -1.31 -0.59 -1.29 -0.62 -1.27 -0.64 -1.25 -0.67 -1.23 -0.69 -1.21 -0.67 -1.12zm8.71 48.25c0.42,-3.18 -4.27,-3.86 -4.78,-0.73l-0.22 1.56 -0.28 1.76 -0.25 1.41 -0.27 1.4 -0.29 1.39 -0.31 1.37 -0.33 1.37 -0.35 1.35 -0.37 1.34 -0.39 1.33 -0.41 1.32 -0.43 1.31 -0.45 1.3 -0.46 1.29 -0.48 1.28 -0.78 1.95c-1.19,2.88 3.06,4.82 4.43,1.94 0.3,-0.71 0.58,-1.43 0.86,-2.14l0.51 -1.35 0.49 -1.36 0.47 -1.37 0.45 -1.38 0.43 -1.39 0.41 -1.41 0.39 -1.41 0.37 -1.43 0.35 -1.44 0.33 -1.45 0.3 -1.46 0.28 -1.47 0.26 -1.48 0.3 -1.84 0.22 -1.56zm-18.69 45.33c1.88,-2.59 -1.9,-5.43 -3.86,-2.91 -0.57,0.77 -1.16,1.52 -1.75,2.27 -0.87,1.07 -1.74,2.13 -2.64,3.18 -2.17,2.48 -4.35,4.79 -6.7,7.11 -1.67,1.61 -3.35,3.16 -5.09,4.69 -2.38,2.1 0.73,5.72 3.17,3.65 4.43,-3.89 8.39,-7.84 12.28,-12.28l1.86 -2.21 0.9 -1.12c0.61,-0.78 1.24,-1.57 1.83,-2.37zm-36.66 32.51c2.69,-1.74 0.17,-5.75 -2.56,-4.11 -6.8,4.2 -13.77,7.96 -21.01,11.34 -0.55,0.26 -0.97,0.69 -1.21,1.25 -0.85,2.05 1.23,4.05 3.24,3.14 7.43,-3.48 14.55,-7.32 21.54,-11.63zm-90.88 34.29c0.65,-0.14 1.16,-0.51 1.52,-1.06 1.15,-1.83 -0.44,-4.11 -2.55,-3.67 -7.84,1.73 -15.71,3.27 -23.63,4.63 -3.06,0.55 -2.44,5.16 0.75,4.78 7.97,-1.31 16.02,-2.94 23.91,-4.68zm-47.87 8.27c3.19,-0.47 2.54,-5.17 -0.62,-4.8 -7.97,1.03 -15.95,1.9 -23.96,2.65 -3.16,0.32 -2.77,5.05 0.44,4.82 8.06,-0.76 16.1,-1.63 24.13,-2.67zm-48.33 4.5c3.19,-0.23 2.91,-4.97 -0.28,-4.83 -8.04,0.47 -16.04,0.78 -24.09,1.06 -3.2,0.14 -3.05,4.88 0.13,4.84 8.1,-0.26 16.15,-0.59 24.24,-1.06zm-48.5 1.39c3.2,-0.05 3.19,-4.79 0.01,-4.84 -8.04,-0.01 -16.08,-0.15 -24.11,-0.41 -3.22,-0.05 -3.33,4.7 -0.16,4.84 8.08,0.26 16.17,0.41 24.26,0.41zm-48.5 -1.63c3.16,0.19 3.55,-4.54 0.33,-4.83 -7.98,-0.51 -16.02,-1.26 -23.97,-2.19 -3.18,-0.33 -3.73,4.39 -0.57,4.81 8.02,0.94 16.15,1.7 24.21,2.21z"/>
 </g>
</svg>
