<svg width="7" height="54" viewBox="0 0 7 54" fill="none" xmlns="http://www.w3.org/2000/svg">
<path fill-rule="evenodd" clip-rule="evenodd" d="M5.7229 53.2815C5.90925 53.4641 6.21137 53.4641 6.39772 53.2815C6.58407 53.0989 6.58407 52.8029 6.39772 52.6203L1.67396 47.9921C1.48761 47.8095 1.18548 47.8095 0.999135 47.9921C0.812788 48.1747 0.812788 48.4707 0.999135 48.6533L5.7229 53.2815ZM5.7229 47.9921C5.90925 48.1747 6.21137 48.1747 6.39772 47.9921C6.58407 47.8096 6.58407 47.5135 6.39772 47.331L1.67396 42.7027C1.48761 42.5202 1.18548 42.5202 0.999135 42.7027C0.812788 42.8853 0.812788 43.1813 0.999135 43.3639L5.7229 47.9921ZM6.39772 42.7028C6.21137 42.8853 5.90925 42.8853 5.7229 42.7028L0.999135 38.0745C0.812788 37.8919 0.812787 37.5959 0.999135 37.4134C1.18548 37.2308 1.48761 37.2308 1.67396 37.4134L6.39772 42.0416C6.58407 42.2242 6.58407 42.5202 6.39772 42.7028ZM5.7229 37.4134C5.90925 37.5959 6.21137 37.5959 6.39772 37.4134C6.58407 37.2308 6.58407 36.9348 6.39772 36.7522L1.67396 32.124C1.48761 31.9414 1.18548 31.9414 0.999134 32.124C0.812787 32.3065 0.812787 32.6026 0.999135 32.7851L5.7229 37.4134ZM6.39772 32.124C6.21137 32.3066 5.90925 32.3066 5.7229 32.124L0.999134 27.4958C0.812787 27.3132 0.812787 27.0172 0.999134 26.8346C1.18548 26.652 1.48761 26.652 1.67396 26.8346L6.39772 31.4628C6.58407 31.6454 6.58407 31.9414 6.39772 32.124ZM5.7229 26.8346C5.90924 27.0172 6.21137 27.0172 6.39772 26.8346C6.58407 26.652 6.58407 26.356 6.39772 26.1734L1.67396 21.5452C1.48761 21.3626 1.18548 21.3626 0.999134 21.5452C0.812787 21.7278 0.812787 22.0238 0.999134 22.2064L5.7229 26.8346ZM6.39772 21.5452C6.21137 21.7278 5.90924 21.7278 5.7229 21.5452L0.999134 16.917C0.812787 16.7344 0.812786 16.4384 0.999134 16.2558C1.18548 16.0732 1.48761 16.0732 1.67396 16.2558L6.39772 20.884C6.58407 21.0666 6.58407 21.3626 6.39772 21.5452ZM5.7229 16.2558C5.90924 16.4384 6.21137 16.4384 6.39772 16.2558C6.58407 16.0733 6.58407 15.7772 6.39772 15.5947L1.67396 10.9664C1.48761 10.7839 1.18548 10.7839 0.999134 10.9664C0.812786 11.149 0.812786 11.445 0.999134 11.6276L5.7229 16.2558ZM6.39772 10.9664C6.21137 11.149 5.90924 11.149 5.7229 10.9664L0.999133 6.33822C0.812786 6.15564 0.812786 5.85962 0.999133 5.67704C1.18548 5.49446 1.48761 5.49446 1.67396 5.67704L6.39772 10.3053C6.58407 10.4878 6.58407 10.7839 6.39772 10.9664ZM5.7229 5.67706C5.90924 5.85964 6.21137 5.85964 6.39772 5.67706C6.58407 5.49448 6.58407 5.19847 6.39772 5.01589L1.67396 0.387661C1.48761 0.205078 1.18548 0.205078 0.999133 0.387661C0.812786 0.57024 0.812786 0.866257 0.999133 1.04884L5.7229 5.67706Z" fill="white"/>
</svg>
